<?xml version="1.0" encoding="utf-8"?>
<!-- Generator: Adobe Illustrator 24.0.1, SVG Export Plug-In . SVG Version: 6.00 Build 0)  -->
<svg version="1.1" id="Layer_1" xmlns="http://www.w3.org/2000/svg" xmlns:xlink="http://www.w3.org/1999/xlink" x="0px" y="0px"
	 viewBox="0 0 197.09 27.48" style="enable-background:new 0 0 197.09 27.48;" xml:space="preserve">
<style type="text/css">
	.st0{fill:#FFFFFF;}
</style>
<rect x="-49.32" y="-140.93" style="fill:none;" width="31" height="24"/>
<g>
	<path class="st0" d="M8.18,0.41v26.66H0V0.41H8.18z"/>
	<path class="st0" d="M21.13,17.38v9.69h-8.3V0.41h11.39c2.84,0,5,0.33,6.47,0.98c1.48,0.65,2.65,1.65,3.52,2.99
		c0.87,1.34,1.3,2.85,1.3,4.51c0,2.54-0.89,4.59-2.66,6.15c-1.77,1.56-4.13,2.34-7.09,2.34H21.13z M21.02,11.66h2.73
		c2.41,0,3.61-0.89,3.61-2.66c0-1.67-1.11-2.5-3.34-2.5h-3.01V11.66z"/>
	<path class="st0" d="M61.58,12.13v14.94h-4c-0.33-1.11-0.68-2.04-1.07-2.79c-1.65,2.14-4.1,3.2-7.34,3.2c-3.44,0-6.26-1.2-8.48-3.6
		c-2.21-2.4-3.32-5.65-3.32-9.76c0-3.98,1.07-7.33,3.21-10.05C42.72,1.36,45.9,0,50.14,0c3.18,0,5.74,0.81,7.68,2.42
		c1.94,1.61,3.2,3.91,3.77,6.88l-7.93,0.78C53.26,7.3,52.04,5.92,50,5.92c-2.68,0-4.02,2.55-4.02,7.66c0,3.09,0.43,5.12,1.29,6.1
		c0.86,0.98,1.9,1.47,3.13,1.47c0.99,0,1.83-0.3,2.53-0.9c0.7-0.6,1.05-1.42,1.06-2.46h-4.41v-5.66H61.58z"/>
	<path class="st0" d="M89.63,27.07h-9.07l-3.89-10.2h-2.58v10.2H65.9V0.41h13.93c3.07,0,5.46,0.72,7.16,2.16
		c1.7,1.44,2.55,3.34,2.55,5.69c0,1.54-0.31,2.89-0.94,4.07c-0.63,1.18-1.89,2.22-3.79,3.12L89.63,27.07z M74.08,11.17h3.5
		c1.03,0,1.86-0.21,2.48-0.64S81,9.47,81,8.63c0-1.71-1.05-2.56-3.14-2.56h-3.77V11.17z"/>
	<path class="st0" d="M117.23,27.07h-9.07l-3.89-10.2h-2.58v10.2H93.5V0.41h13.93c3.07,0,5.46,0.72,7.16,2.16
		c1.7,1.44,2.55,3.34,2.55,5.69c0,1.54-0.31,2.89-0.94,4.07c-0.63,1.18-1.89,2.22-3.79,3.12L117.23,27.07z M101.68,11.17h3.5
		c1.03,0,1.86-0.21,2.48-0.64s0.94-1.06,0.94-1.89c0-1.71-1.05-2.56-3.14-2.56h-3.77V11.17z"/>
	<path class="st0" d="M132.3,27.48c-3.75,0-6.81-1.24-9.17-3.73c-2.36-2.49-3.54-5.81-3.54-9.98c0-3.98,1.13-7.28,3.39-9.87
		c2.26-2.6,5.39-3.9,9.4-3.9c3.71,0,6.73,1.22,9.07,3.67c2.34,2.45,3.51,5.72,3.51,9.8c0,4.23-1.18,7.62-3.54,10.18
		C139.07,26.2,136.03,27.48,132.3,27.48z M132.27,21.43c1.38,0,2.37-0.6,2.98-1.81c0.61-1.2,0.91-3.41,0.91-6.61
		c0-4.64-1.24-6.95-3.73-6.95c-2.68,0-4.02,2.64-4.02,7.93C128.4,18.95,129.69,21.43,132.27,21.43z"/>
	<path class="st0" d="M170.04,0.41v17.66c0,3.35-0.99,5.75-2.98,7.22c-1.99,1.46-4.57,2.2-7.76,2.2c-3.36,0-6.06-0.7-8.1-2.11
		c-2.04-1.41-3.06-3.7-3.06-6.88V0.41h8.32v17.13c0,1.28,0.27,2.21,0.81,2.79s1.4,0.88,2.58,0.88c0.99,0,1.79-0.21,2.42-0.63
		c0.63-0.42,1.01-0.9,1.13-1.44c0.12-0.53,0.19-1.58,0.19-3.13V0.41H170.04z"/>
	<path class="st0" d="M182.71,17.38v9.69h-8.3V0.41h11.39c2.84,0,5,0.33,6.47,0.98c1.48,0.65,2.65,1.65,3.52,2.99
		c0.87,1.34,1.3,2.85,1.3,4.51c0,2.54-0.89,4.59-2.66,6.15c-1.77,1.56-4.13,2.34-7.09,2.34H182.71z M182.6,11.66h2.73
		c2.41,0,3.61-0.89,3.61-2.66c0-1.67-1.11-2.5-3.34-2.5h-3.01V11.66z"/>
</g>
</svg>
