<svg xmlns="http://www.w3.org/2000/svg" viewBox="0 0 71.35 76"><defs><style>.cls-1{isolation:isolate;}.cls-2{fill:#2e2f30;}.cls-3{fill:#1e19cc;}.cls-4{fill:#f95157;mix-blend-mode:difference;}.cls-5{fill:#dfdff4;}</style></defs><title>icon_content_marketing</title><g class="cls-1"><g id="Layer_1" data-name="Layer 1"><path class="cls-2" d="M42.63,24.88a12.3,12.3,0,1,1,12.3-12.3A12.31,12.31,0,0,1,42.63,24.88Zm0-22.6a10.3,10.3,0,1,0,10.3,10.3A10.3,10.3,0,0,0,42.63,2.28Z"/><polygon class="cls-3" points="38.77 7.09 38.77 18.06 48.64 12.58 38.77 7.09"/><path class="cls-2" d="M64,49.4H35.7a1,1,0,0,1-1-1V28.9a1,1,0,0,1,1-1H64a1,1,0,0,1,1,1V48.4A1,1,0,0,1,64,49.4Zm-27.26-2H63V29.9H36.7Z"/><path class="cls-2" d="M49.83,39.65a1,1,0,0,1-.57-.18L35.13,29.72a1,1,0,1,1,1.14-1.64l13.56,9.35,13.56-9.35a1,1,0,1,1,1.14,1.64L50.4,39.47A1,1,0,0,1,49.83,39.65Z"/><circle class="cls-4" cx="63.04" cy="51.04" r="7.47"/><path class="cls-2" d="M41.07,75.72H10a8.6,8.6,0,0,1-8.59-8.59V14.8A8.6,8.6,0,0,1,10,6.21H27.11a1,1,0,0,1,0,2H10A6.6,6.6,0,0,0,3.37,14.8V67.13A6.6,6.6,0,0,0,10,73.72H41.07a6.6,6.6,0,0,0,6.6-6.59V53.67a1,1,0,0,1,2,0V67.13A8.6,8.6,0,0,1,41.07,75.72Z"/><path class="cls-2" d="M29.56,49.57H8.14a1,1,0,0,1,0-2H29.56a1,1,0,0,1,0,2Z"/><path class="cls-2" d="M30.13,44.83h-22a1,1,0,0,1,0-2h22a1,1,0,0,1,0,2Z"/><path class="cls-2" d="M27.17,54.31h-19a1,1,0,0,1,0-2h19a1,1,0,0,1,0,2Z"/><rect class="cls-4" x="6.64" y="16.98" width="20.29" height="18.98" rx="2.78"/><circle class="cls-5" cx="25.52" cy="66.5" r="4.01"/></g></g></svg>