<svg version="1.1" id="Layer_1" xmlns="http://www.w3.org/2000/svg" x="0" y="0" viewBox="0 0 881.8 117.5" xml:space="preserve"><style>.st1{fill:#fff}</style><path class="st1" d="M173.2 89.6c-5.2-4.9-12-7.4-18.4-6.8-5.8.5-10.9 3.5-14.5 8.3l-6.2 8.4c-1.6 2.1-3.6 2.4-4.6 2.4-1.1 0-3.1-.3-4.6-2.4l-6-8.1c-4.1-5.6-10.3-8.7-17.1-8.7-6.8 0-13 3.2-17.1 8.7l-6 8.1c-1.6 2.1-3.6 2.4-4.6 2.4-1.1 0-3.1-.3-4.6-2.4-2.5-3.5-7.4-4.2-10.9-1.6-3.5 2.5-4.2 7.4-1.6 10.9 4.1 5.6 10.3 8.7 17.1 8.7 6.8 0 13-3.2 17.1-8.7l6-8.1c1.6-2.1 3.6-2.4 4.6-2.4s3.1.3 4.6 2.4l6 8.1c4.1 5.6 10.3 8.7 17.1 8.7h1.3l2.7-.3c4.8-.9 9.1-3.5 12.3-7.3.3-.3.5-.7.8-1l6.2-8.4c.9-1.3 2-1.9 3.4-2.1 2-.2 4.4.8 6.4 2.7 3.1 2.9 8.1 2.8 11-.4 2.9-3.2 2.8-8.2-.4-11.1zM94.8 57.3L8.6 47.8H7.1c-.1 0-.3 0-.4.1-.1 0-.2 0-.3.1h-.6c-.1 0-.2.1-.3.1-.1 0-.3.1-.4.1-.1 0-.2.1-.3.1-.1.1-.3.1-.4.2-.1 0-.2.1-.3.1-.1.1-.2.1-.4.2-.1.2-.2.2-.3.3 0 0-.1 0-.1.1l-.2.2c-.1.1-.2.1-.3.2l-.3.3c-.1.1-.2.1-.2.2l-.3.3-.2.2c-.1.1-.2.2-.3.4-.1.1-.1.2-.2.3-.1.1-.2.2-.2.4-.1 0-.1.1-.2.2s-.1.2-.2.3c-.1.1-.1.2-.2.3 0 .1-.1.2-.1.3 0 .1-.1.2-.1.4 0 .1-.1.2-.1.4 0 .1-.1.2-.1.4 0 .1 0 .3-.1.4v1.8c0 .1 0 .3.1.4 0 .1 0 .2.1.4 0 .1.1.2.1.4 0 .1.1.2.1.4 0 .1.1.2.1.4 0 .1.1.2.1.4 0 .1.1.2.2.3.1.1.1.2.2.4.1.1.1.2.2.3.1.1.1.2.2.4 0 0 0 .1.1.1l13.4 19c1.5 2.2 3.9 3.3 6.4 3.3 1.5 0 3.1-.5 4.5-1.4 3.5-2.5 4.4-7.3 1.9-10.8l-3.7-5 69.1 7.6h.9c3.9 0 7.3-2.9 7.7-6.9.5-4.3-2.6-8.1-6.9-8.6z"/><path class="st1" d="M89.5 97.9c-3.5-2.5-8.3-1.8-10.9 1.6-1.6 2.1-3.6 2.4-4.6 2.4-1.1 0-3.1-.3-4.6-2.4l-6-8.1c-3.5-4.8-8.6-7.7-14.2-8.3-6.3-.7-12.9 1.6-18.2 6.3-3.2 2.9-3.5 7.8-.6 11s7.8 3.5 11 .6c1.9-1.7 4.3-2.7 6.2-2.4 1.3.1 2.4.8 3.3 2.1l6 8.1c4.1 5.6 10.3 8.7 17.1 8.7 6.8 0 13-3.2 17.1-8.7 2.6-3.5 1.9-8.3-1.6-10.9zm112.7-38.6c.1-.1.1-.2.2-.4.1-.1.1-.2.2-.3.1-.1.1-.2.1-.4 0-.1.1-.2.1-.3 0-.1.1-.2.1-.4 0-.1.1-.2.1-.4s0-.2.1-.4c0-.1 0-.3.1-.4v-1.8c0-.1 0-.3-.1-.4 0-.1-.1-.2-.1-.4 0-.1-.1-.2-.1-.4 0-.1-.1-.3-.1-.4 0-.1-.1-.2-.1-.3-.1-.1-.1-.2-.2-.4-.1-.1-.1-.2-.2-.3-.1-.1-.1-.2-.2-.3-.1-.1-.1-.2-.2-.3-.1-.1-.1-.2-.2-.3-.1-.1-.2-.2-.2-.3-.1-.1-.1-.2-.2-.3l-.3-.3-.3-.3c-.1-.1-.2-.2-.3-.2l-.3-.3c-.1 0-.1-.1-.2-.1 0 0-.1 0-.1-.1-.1-.1-.2-.2-.4-.2-.1-.1-.2-.1-.3-.2-.1-.1-.2-.1-.4-.2-.1-.1-.2-.1-.3-.2-.1-.1-.2-.1-.4-.1-.1 0-.2-.1-.3-.1-.1 0-.2-.1-.4-.1-.1 0-.2-.1-.4-.1-.1 0-.3 0-.4-.1-.1 0-.2 0-.4-.1h-1.6L144 53.4 108.1 3.2l-.1-.1c-.1-.1-.2-.3-.3-.4-.1-.1-.1-.2-.2-.2l-.3-.3-.3-.3c-.1-.1-.2-.1-.2-.2-.1-.1-.3-.2-.4-.3h-.1c-.1 0-.1-.1-.2-.1-.1-.1-.3-.2-.4-.3-.1-.1-.2-.1-.3-.2-.1-.1-.2-.1-.4-.2-.1-.1-.2-.1-.4-.2-.1 0-.2-.1-.3-.1-.1-.1-.3-.1-.4-.1-.1 0-.2-.1-.3-.1-.2 0-.3-.1-.5-.1h-.3c-.2 0-.3 0-.5-.1h-1.8c-.1 0-.2 0-.3.1-.1 0-.3.1-.4.1-.1 0-.2.1-.3.1-.1 0-.2.1-.4.1-.1 0-.2.1-.4.1-.1 0-.2.1-.3.1-.1.1-.3.1-.4.2.1.3 0 .3-.1.4-.2.1-.3.2-.4.3 0 0-.1.1-.2.1h-.1c-.1.1-.3.2-.4.3-.1.1-.2.1-.2.2l-.3.3-.3.3c-.1.1-.1.2-.2.2-.1.1-.2.3-.3.4v.1L73.8 33.6c-2.5 3.5-1.7 8.4 1.8 10.8 1.4 1 2.9 1.4 4.5 1.4 2.4 0 4.8-1.1 6.3-3.3L101.7 21l32.2 45c1.5 2.1 3.8 3.2 6.3 3.2h.9L179 65l-2.8 4c-2.5 3.5-1.6 8.4 1.9 10.8 1.4 1 2.9 1.4 4.5 1.4 2.4 0 4.8-1.1 6.4-3.3L201.8 60s0-.1.1-.1c.1-.1.2-.2.2-.4 0 0 .1-.1.1-.2zm108.6 14.5c0 20.7-16.7 37.1-38 37.1s-38-16.4-38-37.1c0-20.9 16.7-37.3 38-37.3s38 16.5 38 37.3zm-17.5 0c0-12.2-8.8-21.3-20.4-21.3-11.6 0-20.4 9-20.4 21.3 0 12.1 8.8 21.1 20.4 21.1s20.4-8.9 20.4-21.1zm34.1 19.1c2.6-.5 4.1.4 5 1.8 1.6 2.6 4.9 3.6 8.5 3.6 4.5 0 6.9-1.9 6.9-4.3 0-1.8-1.4-3.2-5.3-3.9L331.7 88c-9.9-1.8-15.5-7.1-15.5-15.5 0-11 9.5-18.1 23-18.1 10.6 0 18.3 3.8 22.1 10.1 1.5 2.4.1 5.7-2.7 6.2l-7.2 1.4c-1.7.3-3.5-.2-4.4-1.7-1.4-2.2-4.1-3.9-8-3.9-4.6 0-6.1 2.2-6.1 4.2 0 1.5.6 3 4 3.7l12.6 2.6c10.1 2.1 14.8 8.2 14.8 16.1 0 11.8-10.2 18-24.3 18-10.4 0-19.6-3.1-23.4-10.4-1.3-2.4.1-5.4 2.8-6l8-1.8zM427 82.7c0 16.9-13.4 28.2-29.3 28.2-16.2 0-29.6-11.3-29.6-28.2 0-16.8 13.4-28.1 29.6-28.1 15.9 0 29.3 11.3 29.3 28.1zm-16.4 0c0-8.3-6.3-13.8-12.9-13.8-6.9 0-13.2 5.5-13.2 13.8 0 8.4 6.3 13.8 13.2 13.8 6.6 0 12.9-5.4 12.9-13.8zM524.1 76v29.3c0 2.3-1.8 4.1-4.1 4.1h-8.7c-2.3 0-4.1-1.8-4.1-4.1V79.6c0-6.1-3.9-9.9-8.9-9.9-6.3 0-10.4 4.6-10.4 13.5v22c0 2.3-1.8 4.1-4.1 4.1H475c-2.3 0-4.1-1.8-4.1-4.1V79.6c0-6.1-3.9-9.9-9-9.9-6.2 0-10.2 4.6-10.2 13.5v22c0 2.3-1.8 4.1-4.1 4.1h-8.8c-2.3 0-4.1-1.8-4.1-4.1V60.1c0-2.3 1.8-4.1 4.1-4.1h8.8c2.3 0 4.1 1.8 4.1 4.1v.8c3.6-4 8.8-6.5 15.7-6.5 7.4 0 13.8 3.2 17.5 9 4.3-5.5 10.6-9 18.9-9 11.3 0 20.3 8.6 20.3 21.6zm83.7-18l-9.4 1.9c-1.8.4-3.6-.6-4.3-2.3-2.1-4.7-6.8-7-11.5-7-5.9 0-9.6 3.2-9.6 7.2 0 2.9 1.3 5 5.7 6l14.8 3.3c12.3 2.8 19.6 9.5 19.6 20.7 0 15.2-13.5 23.1-29.4 23.1-14.3 0-26.2-6-30.1-17.1-.8-2.4.7-4.8 3.2-5.3l10.3-2c1.9-.4 3.7.6 4.5 2.3 2.3 5.2 7 7.5 13 7.5 6.6 0 10.5-3 10.5-7.3 0-3.2-1.5-5.2-6.6-6.3l-14.9-3.2c-10.2-2.3-19.1-7.7-19.1-20.6 0-13.8 11.5-22.4 28.2-22.4 13.6 0 23.9 5.9 28.1 16 1.1 2.5-.4 5-3 5.5zm51.9 45c.8 2.7-.2 4.8-2 5.6-3.2 1.4-6.8 2.4-11.3 2.4-13.3 0-21.3-7.2-21.3-21.3V69.4h-5.6c-2.3 0-4.1-1.8-4.1-4.1V60c0-2.3 1.8-4.1 4.1-4.1h5.5V42.2c0-2.3 1.8-4.1 4.1-4.1h8.8c2.3 0 4.1 1.8 4.1 4.1V56h11.6c2.3 0 4.1 1.8 4.1 4.1v5.3c0 2.3-1.8 4.1-4.1 4.1H642V88c0 5.5 2.7 7.8 7.1 7.8 1.2 0 2.6-.2 4-.6 2.1-.6 4.3.6 5 2.8l1.6 5zm54.6 6.4h-8.8c-2.3 0-4.1-1.8-4.1-4.1v-1c-4 4.3-9.7 6.7-16.4 6.7-12.4 0-20.7-8.8-20.7-22.2V60.1c0-2.3 1.8-4.1 4.1-4.1h8.7c2.3 0 4.1 1.8 4.1 4.1v25c0 6.3 3.7 10.5 9.1 10.5 6.7 0 11.1-4.6 11.1-14.9V60.1c0-2.3 1.8-4.1 4.1-4.1h8.8c2.3 0 4.1 1.8 4.1 4.1v45.2c0 2.2-1.9 4.1-4.1 4.1zm67.2 0h-8.8c-2.3 0-4.1-1.8-4.1-4.1v-.1c-4.2 3.7-9.7 5.8-16.6 5.8-14.2 0-26.1-11.4-26.1-28.3 0-16.8 11.9-28.3 26.1-28.3 6.9 0 12.4 2.1 16.6 5.8V31.6c0-2.3 1.8-4.1 4.1-4.1h8.8c2.3 0 4.1 1.8 4.1 4.1v73.7c0 2.2-1.8 4.1-4.1 4.1zm-12.9-26.7c0-8.2-6.2-13.8-13.1-13.8-7.4 0-12.9 5.6-12.9 13.8 0 8.3 5.4 13.8 12.9 13.8 6.9 0 13.1-5.5 13.1-13.8zm47.3-42.5c0 5.4-4.2 9.5-9.9 9.5s-9.8-4-9.8-9.5c0-5.2 4-9.7 9.8-9.7 5.8 0 9.9 4.5 9.9 9.7zm-18.4 65V60.1c0-2.3 1.8-4.1 4.1-4.1h8.8c2.3 0 4.1 1.8 4.1 4.1v45.2c0 2.3-1.8 4.1-4.1 4.1h-8.8c-2.2 0-4.1-1.9-4.1-4.2zm84.3-22.5c0 16.9-13.4 28.2-29.3 28.2-16.2 0-29.6-11.3-29.6-28.2 0-16.8 13.4-28.1 29.6-28.1 15.9 0 29.3 11.3 29.3 28.1zm-16.4 0c0-8.3-6.3-13.8-12.9-13.8-6.9 0-13.2 5.5-13.2 13.8 0 8.4 6.3 13.8 13.2 13.8 6.6 0 12.9-5.4 12.9-13.8z"/></svg>