<svg xmlns="http://www.w3.org/2000/svg" width="881.771" height="117.527"><path fill="#1E19CC" d="M173.217 89.611c-5.238-4.911-11.951-7.389-18.411-6.798-5.756.526-10.892 3.483-14.457 8.32l-6.221 8.425c-1.554 2.107-3.566 2.423-4.628 2.423-1.062 0-3.075-.315-4.629-2.423l-.002-.003-5.96-8.085c-4.097-5.556-10.344-8.742-17.141-8.743h-.001c-6.797 0-13.044 3.187-17.141 8.741l-5.967 8.091c-1.554 2.106-3.566 2.422-4.628 2.422-1.062 0-3.075-.315-4.628-2.424a7.774 7.774 0 00-12.515 9.224c4.096 5.557 10.343 8.745 17.141 8.746h.003c6.796 0 13.044-3.187 17.141-8.741l5.967-8.091c1.554-2.107 3.566-2.422 4.628-2.422 1.062 0 3.074.315 4.628 2.422l5.963 8.089c4.097 5.557 10.345 8.743 17.142 8.742a21.277 21.277 0 004.009-.384c4.799-.918 9.127-3.471 12.337-7.342.273-.329.539-.668.795-1.017l.005-.007 6.214-8.415c.949-1.288 2.018-1.944 3.363-2.067 1.984-.192 4.419.836 6.362 2.657a7.772 7.772 0 1010.631-11.34z"/><path fill="#F95157" d="M94.817 57.31L8.624 47.821c-.04-.004-.079-.003-.118-.007a8.124 8.124 0 00-.442-.026c-.11-.004-.221-.01-.331-.01-.142.001-.285.01-.427.018-.113.007-.226.011-.338.023-.14.015-.279.038-.419.06-.11.018-.221.032-.329.054-.141.029-.281.067-.42.104-.104.027-.209.052-.312.084-.139.043-.276.095-.414.146-.099.037-.2.071-.297.112-.133.056-.263.12-.393.183-.099.048-.2.095-.297.147-.122.066-.241.139-.36.212-.101.062-.202.123-.3.189-.041.028-.084.05-.125.079-.075.053-.142.113-.215.168a6.938 6.938 0 00-.601.504 7.439 7.439 0 00-1.183 1.391 8.962 8.962 0 00-.396.665 8.04 8.04 0 00-.325.696 7.529 7.529 0 00-.499 1.865c-.01.073-.027.144-.035.219-.004.04-.003.079-.007.119-.014.146-.02.293-.026.44-.004.112-.01.224-.01.335.001.139.009.277.017.416.007.118.011.236.024.353.014.131.036.261.056.391.019.121.035.242.06.361.026.126.06.25.092.374.031.121.06.242.097.361.037.12.082.237.125.355.044.121.086.242.136.36.047.111.101.22.154.329.058.122.116.244.18.363.055.101.116.199.175.298.074.123.149.246.23.364.023.034.041.07.065.103l13.373 19.02a7.765 7.765 0 006.366 3.304 7.774 7.774 0 006.352-12.245l-3.472-4.939 69.083 7.605a7.774 7.774 0 001.699-15.454zM89.53 97.916a7.773 7.773 0 00-10.87 1.643c-1.554 2.107-3.566 2.422-4.628 2.422-1.062 0-3.075-.315-4.628-2.424l-5.958-8.084c-3.511-4.764-8.556-7.711-14.205-8.3-6.308-.658-12.921 1.641-18.156 6.305a7.774 7.774 0 0010.343 11.608c1.948-1.736 4.262-2.655 6.201-2.449 1.317.137 2.367.792 3.302 2.062l5.958 8.084c4.096 5.557 10.343 8.745 17.141 8.746h.003c6.796 0 13.044-3.187 17.141-8.742a7.777 7.777 0 00-1.644-10.871z"/><path fill="#1E19CC" d="M202.237 59.266c.066-.121.125-.245.185-.37.052-.108.105-.214.151-.323.051-.12.094-.243.139-.365.042-.116.087-.232.123-.349.038-.121.068-.245.1-.369.031-.122.065-.242.09-.365.025-.123.043-.247.063-.372.02-.127.041-.253.054-.38.013-.12.018-.242.025-.363.008-.135.016-.27.017-.405.001-.115-.005-.231-.009-.347a7.618 7.618 0 00-.025-.428c-.004-.044-.003-.087-.008-.132-.008-.073-.025-.143-.035-.215a7.359 7.359 0 00-.148-.779 7.565 7.565 0 00-.665-1.76 6.938 6.938 0 00-.39-.662 8.757 8.757 0 00-.206-.298 9.31 9.31 0 00-.245-.319 7.488 7.488 0 00-1.382-1.327c-.058-.043-.11-.091-.169-.133-.036-.025-.074-.045-.11-.07a7.823 7.823 0 00-.367-.233c-.098-.059-.195-.119-.295-.174-.12-.066-.244-.125-.367-.184-.108-.052-.215-.105-.324-.151-.121-.051-.245-.095-.368-.14-.115-.042-.229-.086-.346-.122-.124-.039-.25-.069-.376-.102-.119-.031-.238-.063-.358-.088-.126-.026-.253-.044-.381-.064-.124-.019-.247-.04-.371-.053-.122-.013-.246-.019-.37-.026a7.641 7.641 0 00-.4-.017c-.115-.001-.231.005-.347.009a6.873 6.873 0 00-.431.026c-.043.004-.086.003-.129.008L144 53.386 108.089 3.247c-.016-.023-.035-.042-.051-.064a7.87 7.87 0 00-.305-.383c-.066-.079-.131-.161-.2-.237-.088-.097-.183-.19-.277-.284-.097-.097-.193-.194-.294-.285-.073-.066-.151-.127-.227-.191a8.242 8.242 0 00-.393-.311c-.022-.016-.04-.034-.062-.049-.052-.037-.108-.067-.16-.103a7.51 7.51 0 00-.422-.269c-.094-.055-.189-.105-.285-.156a7.702 7.702 0 00-.374-.189 9.175 9.175 0 00-.679-.277 8.567 8.567 0 00-.707-.213 8.227 8.227 0 00-1.491-.221 8.528 8.528 0 00-.767-.001 6.827 6.827 0 00-.379.029 6.982 6.982 0 00-.726.106 6.784 6.784 0 00-.733.18c-.125.037-.25.076-.374.12-.123.043-.243.092-.364.141a8.2 8.2 0 00-.322.138 8.218 8.218 0 00-.408.207c-.086.046-.171.091-.255.141-.15.088-.295.184-.439.282-.049.034-.101.061-.15.096-.021.015-.039.032-.059.047-.136.1-.267.207-.397.316-.076.063-.153.124-.225.19-.1.09-.195.187-.291.284-.095.095-.19.189-.279.288-.066.074-.129.153-.192.23a7.282 7.282 0 00-.312.394c-.015.021-.033.039-.048.061l-21.65 30.382a7.772 7.772 0 001.821 10.841 7.733 7.733 0 004.503 1.443 7.764 7.764 0 006.338-3.264l15.332-21.52 32.224 44.99a7.772 7.772 0 007.17 3.2l37.912-4.172-2.844 4.021a7.775 7.775 0 006.339 12.264 7.768 7.768 0 006.353-3.285l12.822-18.128c.025-.035.045-.073.069-.109.082-.121.159-.245.234-.37.059-.096.118-.192.172-.291z"/><path fill="#2E2F30" d="M310.837 73.84c0 20.749-16.703 37.129-37.981 37.129s-37.981-16.381-37.981-37.129c0-20.853 16.703-37.342 37.981-37.342s37.981 16.49 37.981 37.342zm-17.555 0c0-12.231-8.829-21.278-20.427-21.278-11.597 0-20.427 9.047-20.427 21.278 0 12.127 8.829 21.065 20.427 21.065 11.598 0 20.427-8.938 20.427-21.065zm34.094 19.031c2.647-.544 4.149.369 5.049 1.8 1.642 2.611 4.94 3.641 8.499 3.641 4.472 0 6.918-1.916 6.918-4.259 0-1.807-1.387-3.189-5.318-3.937l-10.855-2.124c-9.894-1.813-15.534-7.131-15.534-15.534 0-10.959 9.473-18.084 22.982-18.084 10.581 0 18.332 3.836 22.132 10.064 1.495 2.45.086 5.658-2.729 6.217l-7.178 1.426c-1.663.33-3.501-.231-4.388-1.677-1.367-2.228-4.138-3.902-8.049-3.902-4.576 0-6.066 2.233-6.066 4.15 0 1.485.639 2.976 4.046 3.724l12.553 2.55c10.107 2.129 14.786 8.196 14.786 16.064 0 11.81-10.211 17.98-24.254 17.98-10.399 0-19.558-3.14-23.422-10.445-1.289-2.437.087-5.448 2.788-6.002l8.04-1.652zm99.611-10.202c0 16.916-13.405 28.196-29.256 28.196-16.173 0-29.578-11.281-29.578-28.196 0-16.807 13.405-28.082 29.578-28.082 15.852 0 29.256 11.276 29.256 28.082zm-16.386 0c0-8.294-6.274-13.831-12.87-13.831-6.918 0-13.192 5.536-13.192 13.831 0 8.409 6.274 13.831 13.192 13.831 6.596 0 12.87-5.422 12.87-13.831zm113.503-6.7v29.278a4.127 4.127 0 01-4.128 4.127h-8.661a4.127 4.127 0 01-4.127-4.127V79.584c0-6.061-3.937-9.894-8.938-9.894-6.274 0-10.424 4.576-10.424 13.514v22.043a4.127 4.127 0 01-4.127 4.127h-8.77a4.127 4.127 0 01-4.127-4.127V79.584c0-6.061-3.937-9.894-9.042-9.894-6.17 0-10.211 4.576-10.211 13.514v22.043a4.127 4.127 0 01-4.127 4.127h-8.77a4.127 4.127 0 01-4.127-4.127V60.096a4.127 4.127 0 014.127-4.127h8.77a4.127 4.127 0 014.127 4.127v.765c3.615-4.041 8.829-6.487 15.742-6.487 7.448 0 13.831 3.189 17.451 9.042 4.254-5.531 10.637-9.042 18.936-9.042 11.383 0 20.426 8.616 20.426 21.595zm83.69-17.926l-9.408 1.916c-1.801.367-3.557-.616-4.316-2.289-2.132-4.7-6.785-7.02-11.51-7.02-5.853 0-9.577 3.189-9.577 7.235 0 2.872 1.278 4.996 5.744 5.957l14.786 3.298c12.345 2.763 19.58 9.468 19.58 20.743 0 15.212-13.514 23.086-29.365 23.086-14.256 0-26.25-6.033-30.109-17.131-.832-2.392.689-4.805 3.175-5.287l10.345-2.008c1.858-.361 3.742.592 4.519 2.318 2.35 5.219 6.957 7.535 13.024 7.535 6.596 0 10.533-2.981 10.533-7.344 0-3.189-1.491-5.209-6.596-6.274l-14.895-3.194c-10.211-2.337-19.149-7.655-19.149-20.64 0-13.831 11.488-22.447 28.191-22.447 13.597 0 23.935 5.869 28.085 16.036 1.007 2.464-.449 4.979-3.057 5.51zm51.86 44.94c.79 2.688-.156 4.815-2.04 5.633-3.246 1.409-6.82 2.354-11.344 2.354-13.301 0-21.278-7.235-21.278-21.278V71.128c0-.912.013-1.651.013-1.651h-5.566a4.127 4.127 0 01-4.127-4.127v-5.254a4.127 4.127 0 014.127-4.127h5.548s.005-.739.005-1.651V42.22a4.127 4.127 0 014.127-4.127h8.77a4.127 4.127 0 014.127 4.127v13.749h11.615a4.127 4.127 0 014.127 4.127v5.254a4.127 4.127 0 01-4.127 4.127h-11.615v18.515c0 5.531 2.659 7.765 7.126 7.765 1.207 0 2.639-.226 4.049-.62a4.044 4.044 0 014.969 2.759l1.494 5.087zm54.607 6.392h-8.765a4.127 4.127 0 01-4.127-4.127v-.978c-4.046 4.254-9.681 6.7-16.386 6.7-12.449 0-20.743-8.829-20.743-22.234v-28.64a4.127 4.127 0 014.127-4.127h8.661a4.127 4.127 0 014.127 4.127v25.025c0 6.274 3.724 10.533 9.146 10.533 6.705 0 11.068-4.576 11.068-14.895V60.096a4.127 4.127 0 014.127-4.127h8.765a4.127 4.127 0 014.127 4.127v45.151a4.126 4.126 0 01-4.127 4.128zm67.227 0h-8.77a4.128 4.128 0 01-4.128-4.127v-.126c-4.15 3.724-9.681 5.848-16.594 5.848-14.153 0-26.067-11.384-26.067-28.3 0-16.807 11.914-28.295 26.067-28.295 6.913 0 12.444 2.124 16.594 5.848v-28.64a4.127 4.127 0 014.128-4.127h8.77a4.127 4.127 0 014.127 4.127v73.665a4.127 4.127 0 01-4.127 4.127zm-12.897-26.706c0-8.19-6.17-13.831-13.083-13.831-7.448 0-12.875 5.64-12.875 13.831 0 8.299 5.427 13.831 12.875 13.831 6.913 0 13.083-5.531 13.083-13.831zm47.329-42.447c0 5.427-4.15 9.468-9.894 9.468s-9.79-4.041-9.79-9.468c0-5.214 4.046-9.681 9.79-9.681 5.745 0 9.894 4.466 9.894 9.681zm-18.406 65.026V60.096a4.127 4.127 0 014.127-4.127h8.765a4.127 4.127 0 014.127 4.127v45.151a4.127 4.127 0 01-4.127 4.127h-8.765a4.126 4.126 0 01-4.127-4.126zm84.257-22.579c0 16.916-13.405 28.196-29.256 28.196-16.173 0-29.578-11.281-29.578-28.196 0-16.807 13.405-28.082 29.578-28.082 15.851 0 29.256 11.276 29.256 28.082zm-16.386 0c0-8.294-6.274-13.831-12.87-13.831-6.918 0-13.192 5.536-13.192 13.831 0 8.409 6.274 13.831 13.192 13.831 6.596 0 12.87-5.422 12.87-13.831z"/></svg>