<svg xmlns="http://www.w3.org/2000/svg" viewBox="0 0 90.76 76"><defs><style>.cls-1{isolation:isolate;}.cls-2{fill:#dfdff4;}.cls-3,.cls-7{fill:#2e2f30;}.cls-4{fill:#fff;}.cls-5,.cls-8{fill:#f95157;}.cls-5{mix-blend-mode:difference;}.cls-6{fill:#1e19cc;}.cls-7{opacity:0.2;}</style></defs><title>icon_web_development</title><g class="cls-1"><g id="Layer_1" data-name="Layer 1"><path class="cls-2" d="M38,57.87H6.82a5.16,5.16,0,0,1-5.15-5.15V7.32a5,5,0,0,1,5.05-5H37.85Z"/><path class="cls-3" d="M24.87,75.72l-.15,0a1,1,0,0,1-.84-1.14l2.61-16.85a1,1,0,0,1,2,.31L25.86,74.87A1,1,0,0,1,24.87,75.72Z"/><path class="cls-3" d="M50.92,75.72a1,1,0,0,1-1-.85L47.32,58a1,1,0,0,1,2-.31l2.61,16.85a1,1,0,0,1-.84,1.14Z"/><path class="cls-3" d="M60.18,75.72H15.61a1,1,0,0,1,0-2H60.18a1,1,0,1,1,0,2Z"/><path class="cls-3" d="M59.62,58.85H6.14a6,6,0,0,1-6-6V6.25a6,6,0,0,1,6-6H69.65a6,6,0,0,1,6,6V27.82a1,1,0,1,1-2,0V6.25a4,4,0,0,0-4-4H6.14a4,4,0,0,0-4,4V52.89a4,4,0,0,0,4,4H59.62a1,1,0,0,1,0,2Z"/><circle class="cls-2" cx="64.98" cy="4.91" r="1.69"/><circle class="cls-2" cx="69.95" cy="4.91" r="1.69"/><circle class="cls-4" cx="6.03" cy="4.91" r="1.69"/><circle class="cls-4" cx="10.99" cy="4.91" r="1.69"/><path class="cls-3" d="M58.58,42.45H43a1,1,0,1,1,0-2H58.58a1,1,0,0,1,0,2Z"/><path class="cls-3" d="M58.58,38.12H43a1,1,0,0,1,0-2H58.58a1,1,0,0,1,0,2Z"/><path class="cls-3" d="M56.49,46.79H43a1,1,0,0,1,0-2h13.5a1,1,0,0,1,0,2Z"/><rect class="cls-5" x="41.62" y="15.07" width="18.56" height="17.37" rx="2.78"/><path class="cls-3" d="M26.17,21.81H12.42a1,1,0,1,1,0-2H26.17a1,1,0,0,1,0,2Z"/><path class="cls-3" d="M28.48,38.14H12.42a1,1,0,0,1,0-2H28.48a1,1,0,1,1,0,2Z"/><path class="cls-6" d="M18.67,17.47H9.93a1,1,0,1,1,0-2h8.74a1,1,0,1,1,0,2Z"/><path class="cls-7" d="M6.49,17.47H5.57a1,1,0,1,1,0-2h.92a1,1,0,0,1,0,2Z"/><path class="cls-7" d="M6.49,21.81H5.57a1,1,0,0,1,0-2h.92a1,1,0,0,1,0,2Z"/><path class="cls-7" d="M6.49,26.14H5.57a1,1,0,0,1,0-2h.92a1,1,0,1,1,0,2Z"/><path class="cls-7" d="M6.49,30.51H5.57a1,1,0,1,1,0-2h.92a1,1,0,0,1,0,2Z"/><path class="cls-7" d="M6.49,34.56H5.57a1,1,0,0,1,0-2h.92a1,1,0,1,1,0,2Z"/><path class="cls-7" d="M6.49,38.14H5.57a1,1,0,0,1,0-2h.92a1,1,0,1,1,0,2Z"/><path class="cls-7" d="M6.49,41.73H5.57a1,1,0,0,1,0-2h.92a1,1,0,1,1,0,2Z"/><path class="cls-6" d="M18.67,41.73H9.93a1,1,0,0,1,0-2h8.74a1,1,0,0,1,0,2Z"/><path class="cls-6" d="M19.93,26.14H13.75a1,1,0,0,1,0-2h6.18a1,1,0,0,1,0,2Z"/><path class="cls-3" d="M28.48,30.51H13.75a1,1,0,0,1,0-2H28.48a1,1,0,0,1,0,2Z"/><path class="cls-6" d="M22.65,34.56h-8.9a1,1,0,0,1,0-2h8.9a1,1,0,0,1,0,2Z"/><path class="cls-8" d="M29.46,34.56h-4.1a1,1,0,0,1,0-2h4.1a1,1,0,0,1,0,2Z"/><path class="cls-8" d="M27.93,26.14H23.36a1,1,0,0,1,0-2h4.57a1,1,0,0,1,0,2Z"/><path class="cls-6" d="M75.66,41.19a5,5,0,1,1-5,5,5,5,0,0,1,5-5m0-5a10,10,0,1,0,10,10,10,10,0,0,0-10-10Z"/><path class="cls-6" d="M67.84,34.85a2.05,2.05,0,0,0-1.45.6l-1.88,1.88a2.05,2.05,0,0,0,0,2.9l2.88,2.88,4.78-4.78-2.88-2.88a2,2,0,0,0-1.45-.6Z"/><path class="cls-6" d="M76.81,32.44h-2.3a2.05,2.05,0,0,0-2.05,2.05v4.07h6.4V34.49a2.05,2.05,0,0,0-2-2.05Z"/><path class="cls-6" d="M85.32,37.94h0M84,34.51a2,2,0,0,0-1.45.6L79.62,38l4.78,4.78,2.88-2.88a2.05,2.05,0,0,0,0-2.9L85.4,35.11a2.05,2.05,0,0,0-1.45-.6Z"/><path class="cls-6" d="M87.91,43H83.85V49.4h4.06A2.06,2.06,0,0,0,90,47.34V45.05A2.06,2.06,0,0,0,87.91,43Z"/><path class="cls-6" d="M83.75,49.41,79,54.19l2.87,2.87a2.06,2.06,0,0,0,2.91,0l1.87-1.88a2,2,0,0,0,0-2.9l-2.87-2.87Z"/><path class="cls-6" d="M78.68,54h-6.4V58a2,2,0,0,0,2,2.06h2.3A2.05,2.05,0,0,0,78.68,58V54Z"/><path class="cls-6" d="M67.05,49.74l-2.87,2.87a2.06,2.06,0,0,0,0,2.91l1.87,1.87a2,2,0,0,0,1.46.61A2,2,0,0,0,69,57.39l2.87-2.87-4.78-4.78Z"/><path class="cls-6" d="M67.28,43.05H63.21a2.05,2.05,0,0,0-2.05,2.06v2.3a2.05,2.05,0,0,0,2.05,2.05h4.07V43.05Z"/></g></g></svg>