<svg id="Layer_1" data-name="Layer 1" xmlns="http://www.w3.org/2000/svg" viewBox="0 0 72.38 76"><defs><style>.cls-1{fill:#2e2f30;}.cls-2{fill:#fff;}.cls-3{fill:#dfdff4;}.cls-4{fill:#f95157;}.cls-5{fill:#1e19cc;}</style></defs><title>icon_brand_design</title><path class="cls-1" d="M54.36,44.9A14.8,14.8,0,0,1,46,42.74c-5.16-3.43-5.84-10.25-6.55-17.47a58.85,58.85,0,0,0-1.89-11.41C35.93,8.75,33.8,5.68,31,4.48a6,6,0,0,0-3.64-.34A7.57,7.57,0,0,1,29.9,8.43a7,7,0,0,1-.75,4.72,5.54,5.54,0,0,1-6.07,2,4.91,4.91,0,0,1-2.45-1.64,5.4,5.4,0,0,1-1.19-2.86,6.66,6.66,0,0,1,1.76-5l.26-.28a11.66,11.66,0,0,1,1.87-1.6l-.95-.48a11.81,11.81,0,0,0-1.73-.68C15.3,1,10.16,4.19,7.44,8.06c-.14.19-.27.39-.4.59A1,1,0,0,1,5.36,7.56c.15-.22.29-.44.44-.65C8.94,2.45,14.92-1.2,21.22.67a13.18,13.18,0,0,1,2,.8A19.33,19.33,0,0,1,25.4,2.65a8.4,8.4,0,0,1,6.4,0c3.36,1.45,5.85,4.92,7.62,10.62a59.71,59.71,0,0,1,2,11.81c.66,6.74,1.29,13.1,5.66,16,4,2.65,11,2.38,21.39-.83A1,1,0,0,1,69,42.17C63.12,44,58.29,44.9,54.36,44.9ZM25.21,5a9.68,9.68,0,0,0-2.3,1.77,2.09,2.09,0,0,0-.2.22,4.66,4.66,0,0,0-1.28,3.46,3.35,3.35,0,0,0,.75,1.8,2.9,2.9,0,0,0,1.44,1A3.59,3.59,0,0,0,27.49,12a5,5,0,0,0,.43-3.28A6.38,6.38,0,0,0,25.21,5Z"/><polygon class="cls-2" points="68 43.2 71.47 43.25 71.52 39.69 68.04 39.64 68 43.2"/><path class="cls-1" d="M71.48,44h0L68,44a.75.75,0,0,1-.74-.76l0-3.55a.8.8,0,0,1,.23-.53.69.69,0,0,1,.53-.22l3.48,0a.76.76,0,0,1,.74.76l0,3.56a.8.8,0,0,1-.23.53A.78.78,0,0,1,71.48,44Zm-2.72-1.54,2,0,0-2.06-2,0Z"/><polygon class="cls-2" points="4.32 10.86 8.04 10.91 8.08 7.35 4.36 7.3 4.32 10.86"/><path class="cls-1" d="M8,11.66H8l-3.72-.05a.76.76,0,0,1-.74-.76l0-3.56a.76.76,0,0,1,.23-.53.67.67,0,0,1,.53-.21l3.72,0a.74.74,0,0,1,.74.76l0,3.56a.75.75,0,0,1-.75.74Zm-3-1.54,2.22,0,0-2.06-2.22,0Z"/><path class="cls-3" d="M1.36,58.34H37.47a0,0,0,0,1,0,0V68.53a6.29,6.29,0,0,1-6.29,6.29H7.65a6.29,6.29,0,0,1-6.29-6.29V58.34A0,0,0,0,1,1.36,58.34Z"/><path class="cls-4" d="M27.64,40.06,22.36,51a1.38,1.38,0,0,0,1.79,1.86l11.31-5"/><path class="cls-5" d="M63.45,4.25,27.64,40.06c-.68.68,7.14,8.5,7.82,7.82L71.27,12.07C74.25,9.09,66.43,1.27,63.45,4.25Z"/><path class="cls-4" d="M63.48,4.21,60.91,6.79c-.81.81,7,8.63,7.82,7.82L71.31,12C74.32,9,66.5,1.2,63.48,4.21Z"/><rect class="cls-3" x="5.13" y="27.15" width="13.41" height="13.41" rx="6.71"/><path class="cls-1" d="M29.68,63.2H7.4a1,1,0,0,1,0-2H29.68a1,1,0,0,1,0,2Z"/><path class="cls-1" d="M21.05,68H7.4a1,1,0,0,1,0-2H21.05a1,1,0,0,1,0,2Z"/><path class="cls-1" d="M31.28,75.82h-24A6.88,6.88,0,0,1,.36,69V28.5a6.88,6.88,0,0,1,6.87-6.87H34.44a1,1,0,0,1,0,2H7.23A4.87,4.87,0,0,0,2.36,28.5V69a4.87,4.87,0,0,0,4.87,4.87H31.28A4.87,4.87,0,0,0,36.15,69V58.55a1,1,0,0,1,2,0V69A6.88,6.88,0,0,1,31.28,75.82Z"/></svg>