<svg id="Capa_1" enable-background="new 0 0 512 512" height="512" viewBox="0 0 512 512" width="512" xmlns="http://www.w3.org/2000/svg"><path d="m404.34 222.53-148.34-215.03 1.81 496.99c98.58-.97 178.19-81.18 178.19-179.99 0-37.86-11.7-72.98-31.66-101.97z" fill="#e00016"/><path d="m371.37 222.53c15.53 28.99 24.63 64.11 24.63 101.97 0 98.63-61.7 178.74-138.19 179.99-.6.01-1.21.01-1.81.01-99.41 0-180-80.59-180-180 0-37.86 11.7-72.98 31.66-101.97l148.34-215.03z" fill="#ff4547"/><path d="m256 242.035c-24.813 0-45 20.187-45 45v125h30v-57.535h30v57.535h30v-125c0-24.813-20.187-45-45-45zm-15 82.465v-37.465c0-8.271 6.729-15 15-15s15 6.729 15 15v37.465z" fill="#fff"/><path d="m278.5 324.5v-37.465c0-12.407-10.094-22.5-22.5-22.5-12.407 0-22.5 10.093-22.5 22.5v37.465c0 4.142 3.358 7.5 7.5 7.5h30c4.143 0 7.5-3.358 7.5-7.5zm-15-7.5h-15v-29.965c0-4.136 3.364-7.5 7.5-7.5s7.5 3.364 7.5 7.5z"/><path d="m271 419.535h30c4.143 0 7.5-3.358 7.5-7.5v-125c0-28.949-23.552-52.5-52.5-52.5-28.949 0-52.5 23.551-52.5 52.5v125c0 4.142 3.358 7.5 7.5 7.5h30c4.142 0 7.5-3.358 7.5-7.5v-50.035h15v50.035c0 4.142 3.357 7.5 7.5 7.5zm-30-72.535c-4.142 0-7.5 3.358-7.5 7.5v50.035h-15v-117.5c0-20.678 16.822-37.5 37.5-37.5s37.5 16.822 37.5 37.5v117.5h-15v-50.035c0-4.142-3.357-7.5-7.5-7.5z"/><path d="m410.509 218.269-148.335-215.028c-1.401-2.029-3.708-3.241-6.174-3.241-2.465 0-4.773 1.212-6.173 3.241l-65.65 95.167c-2.352 3.41-1.495 8.08 1.915 10.433 3.41 2.351 8.081 1.494 10.432-1.915l59.476-86.218 142.158 206.074c19.85 28.82 30.342 62.61 30.342 97.718 0 95.117-77.383 172.5-172.5 172.5s-172.5-77.383-172.5-172.5c0-35.108 10.492-68.899 30.338-97.713l65.65-95.167c2.353-3.41 1.495-8.08-1.915-10.432-3.411-2.353-8.081-1.495-10.432 1.915l-65.653 95.171c-21.581 31.332-32.988 68.065-32.988 106.226 0 103.388 84.112 187.5 187.5 187.5s187.5-84.112 187.5-187.5c0-38.16-11.407-74.893-32.991-106.231z"/></svg>