<?xml version="1.0" encoding="iso-8859-1"?>
<!-- Generator: Adobe Illustrator 19.0.0, SVG Export Plug-In . SVG Version: 6.00 Build 0)  -->
<svg version="1.1" id="Capa_1" xmlns="http://www.w3.org/2000/svg" xmlns:xlink="http://www.w3.org/1999/xlink" x="0px" y="0px"
	 viewBox="0 0 512 512" style="enable-background:new 0 0 512 512;" xml:space="preserve">
<g>
	<path style="fill:#EFEDEE;" d="M126.032,356.165c-8.88,10.291-18.523,23.498-26.888,39.61c-8.375,16.102-15.473,35.109-19.306,57
		c-3.111,17.832-4.049,37.571-1.731,59.225h47.924l37.556-51.508L126.032,356.165z"/>
	<path style="fill:#EFEDEE;" d="M432.057,452.775c-7.626-43.598-28.242-75.74-45.965-96.35l-0.067-0.261l-0.046,0.128
		c-0.004-0.005-0.008-0.01-0.012-0.014v0.051L348.47,460.492l37.498,51.428V512h47.821
		C436.106,490.346,435.169,470.607,432.057,452.775z"/>
</g>
<g>
	<path style="fill:#D4D2D3;" d="M126.032,356.165c-6.002,6.956-12.351,15.248-18.42,24.864c4.106,3.43,8.341,6.719,12.701,9.856
		c7.59,5.459,15.462,10.418,23.572,14.875L126.032,356.165z"/>
	<path style="fill:#D4D2D3;" d="M385.967,356.165c6.002,6.956,12.351,15.248,18.42,24.864c-4.106,3.43-8.341,6.719-12.701,9.856
		c-7.59,5.459-15.462,10.418-23.572,14.875L385.967,356.165z"/>
</g>
<path style="fill:#42C3E2;" d="M385.905,356.206c0.021,0.021,0.041,0.052,0.062,0.072V512H126.032V356.165L385.905,356.206z"/>
<path style="fill:#00A5C7;" d="M126.032,356.165v38.69c38.213,25.778,82.99,39.377,129.968,39.377
	c46.976,0,91.755-13.597,129.968-39.375v-38.579c-0.021-0.021-0.041-0.051-0.062-0.072L126.032,356.165z"/>
<path style="fill:#DC5A64;" d="M155.557,356.165l1.72,16.05c0.34,3.214,2.637,20.325,13.99,42.093
	c14.896,28.557,39.075,52.58,69.908,69.486l14.855,8.138l14.855-8.138c30.833-16.905,55.012-40.929,69.908-69.486
	c11.353-21.768,13.64-38.879,13.99-42.093l1.71-16.009L155.557,356.165z M256.03,456.69c-62.285-34.13-68.023-87.761-68.023-87.761
	h136.046C324.053,368.928,318.305,422.56,256.03,456.69z"/>
<path style="fill:#BF4E57;" d="M289.729,431.845c16.555-2.361,32.679-6.467,48.17-12.247c1-1.745,1.967-3.509,2.896-5.29
	c11.353-21.768,13.64-38.879,13.99-42.093l1.71-16.009l-99.594-0.021l-101.342-0.016l1.719,16.046
	c0.34,3.214,2.637,20.325,13.99,42.093c0.934,1.792,1.906,3.564,2.912,5.319c15.487,5.772,31.608,9.871,48.158,12.227
	c-30.853-30.479-34.331-62.925-34.331-62.925h136.046C324.053,368.928,320.57,401.368,289.729,431.845z"/>
<path style="fill:#EFEDEE;" d="M335.278,361.687c0,0-6.697,62.482-79.248,102.243c-72.563-39.762-79.248-102.243-79.248-102.243
	H335.278z"/>
<path style="fill:#D4D2D3;" d="M299.975,430.152c31.602-34.018,35.303-68.465,35.303-68.465H176.783c0,0,3.696,34.456,35.31,68.478
	c14.322,2.692,29.003,4.065,43.906,4.065C270.927,434.232,285.632,432.853,299.975,430.152z"/>
<path style="fill:#3A484A;" d="M37.978,59.649c1.874-10.116,10.719-17.457,21.007-17.346C111.696,42.867,145.654,0,255.999,0
	C379.552,0,480.07,96.748,480.07,215.667l-30.006,26.788l-194.117,30.033L62.988,248.682l-20.757-33.014
	C25.871,147.953,32.6,88.677,37.978,59.649z"/>
<path style="fill:#313D40;" d="M437.357,235.27c0-121.253-93.834-221.365-213.892-233.93C233.533,0.483,244.336,0,255.999,0
	C379.552,0,480.07,96.748,480.07,215.667l-30.006,26.788l-24.802,3.837L437.357,235.27z"/>
<path style="fill:#FBC4AC;" d="M60.358,227.949l0.008,0.006v-0.001l1.813-0.523c0,0,60.643-15.305,60.643-85.781
	c0,0,56.199,14.423,133.178,14.423c76.979,0,133.178-14.423,133.178-14.423c0,70.476,60.643,85.781,60.643,85.781l1.808,0.698
	l6.496,21.265l-14.637,21.265v-0.001c-24.558,76.805-99.2,132.667-187.488,132.667S93.074,347.464,68.518,270.657l-19.89-16.872
	L60.358,227.949z"/>
<g>
	<path style="fill:#E3B098;" d="M60.418,228.69c1.039,14.507,3.813,28.555,8.102,41.97c-2.071,0.301-4.186,0.466-6.34,0.466
		c-24.131,0-43.694-19.562-43.694-43.694c0-22.566,17.108-41.133,39.061-43.447c0.252,21.917,2.811,43.965,2.811,43.965
		L60.418,228.69z"/>
	<path style="fill:#E3B098;" d="M451.641,227.949c0,0,2.558-22.047,2.811-43.965c21.954,2.314,39.061,20.881,39.061,43.447
		c0,24.131-19.562,43.694-43.694,43.694c-2.151,0-4.264-0.164-6.331-0.465v-0.001c-22.899,71.615-89.342,125.012-169.789,131.903
		c68.967-31.898,122.041-90.313,144.778-161.419v0.001l0,0c2.693-8.42,4.961-17.018,6.782-25.769
		c13.015,9.14,24.562,12.055,24.562,12.055l1.806,0.697L451.641,227.949z"/>
</g>
<g>
	<path style="fill:#F98084;" d="M348.411,289.303h28.208c4.267,0,7.726-3.459,7.726-7.726s-3.459-7.726-7.726-7.726h-28.208
		c-4.267,0-7.726,3.459-7.726,7.726S344.144,289.303,348.411,289.303z"/>
	<path style="fill:#F98084;" d="M135.38,289.303h28.208c4.267,0,7.726-3.459,7.726-7.726s-3.459-7.726-7.726-7.726H135.38
		c-4.267,0-7.726,3.459-7.726,7.726S131.113,289.303,135.38,289.303z"/>
</g>
<g>
	<path style="fill:#3B484A;" d="M362.516,258.861c4.268,0,7.726-3.459,7.726-7.726v-20.711c0-4.267-3.458-7.726-7.726-7.726
		c-4.268,0-7.726,3.459-7.726,7.726v20.711C354.79,255.401,358.248,258.861,362.516,258.861z"/>
	<path style="fill:#3B484A;" d="M149.483,258.861c4.268,0,7.726-3.459,7.726-7.726v-20.711c0-4.267-3.458-7.726-7.726-7.726
		s-7.726,3.459-7.726,7.726v20.711C141.757,255.401,145.216,258.861,149.483,258.861z"/>
	<path style="fill:#3B484A;" d="M255.999,288.132c9.655,0,18.719-4.035,24.869-11.07c2.809-3.213,2.481-8.094-0.732-10.902
		c-3.211-2.808-8.093-2.481-10.901,0.732c-3.215,3.678-8.04,5.788-13.235,5.788s-10.02-2.109-13.235-5.788
		c-2.808-3.213-7.689-3.541-10.901-0.732c-3.213,2.808-3.542,7.689-0.732,10.902C237.28,284.097,246.345,288.132,255.999,288.132z"
		/>
</g>
<g>
</g>
<g>
</g>
<g>
</g>
<g>
</g>
<g>
</g>
<g>
</g>
<g>
</g>
<g>
</g>
<g>
</g>
<g>
</g>
<g>
</g>
<g>
</g>
<g>
</g>
<g>
</g>
<g>
</g>
</svg>
