<svg height="512pt" viewBox="-54 0 512 512" width="512pt" xmlns="http://www.w3.org/2000/svg"><path d="m404.871094 417.902344v94.097656h-404.871094v-94.097656c0-48.015625 39.066406-87.089844 87.089844-87.089844h57.394531v-23.847656h115.90625v23.847656h57.390625c48.027344 0 87.089844 39.074219 87.089844 87.089844zm0 0" fill="#00bff0"/><path d="m404.871094 417.902344v94.097656h-202.433594v-205.035156h57.953125v23.847656h57.390625c48.027344 0 87.089844 39.074219 87.089844 87.089844zm0 0" fill="#0099e3"/><path d="m275.476562 330.8125v48.691406l-73.039062.101563-73.042969.101562v-48.894531h15.089844v-23.847656h115.90625v23.847656zm0 0" fill="#ff501a"/><path d="m260.390625 330.8125h15.085937v48.691406l-73.039062.101563v-72.640625h57.953125zm0 0" fill="#c91d00"/><path d="m383.507812 77.535156-124.621093 44.9375 83.925781-30.261718c29.390625-10.597657 44.625-43.015626 34.023438-72.40625l-153.808594 55.464843 19.1875 53.214844-12.515625 4.515625 19.1875 53.214844 100.597656-36.277344c29.386719-10.597656 44.621094-43.011719 34.023437-72.402344zm0 0" fill="#0099e3"/><path d="m28.035156 19.804688c-10.597656 29.390624 4.636719 61.808593 34.027344 72.40625l83.925781 30.261718-124.625-44.9375c-10.597656 29.390625 4.636719 61.804688 34.027344 72.402344l100.59375 36.277344 19.191406-53.214844-12.519531-4.515625 19.191406-53.214844zm0 0" fill="#00bff0"/><path d="m77.90625 433.726562h29.996094v78.214844h-29.996094zm0 0" fill="#25d8f7"/><path d="m296.96875 433.726562h29.996094v78.214844h-29.996094zm0 0" fill="#00bff0"/><path d="m323.511719 137.0625v75.53125c0 66.761719-54.3125 121.078125-121.074219 121.078125s-121.078125-54.316406-121.078125-121.078125v-75.53125zm0 0" fill="#ffdaa8"/><path d="m222.765625 427.28125h39.996094v30h-39.996094zm0 0" fill="#b7dff7"/><path d="m323.511719 137.0625v75.53125c0 66.761719-54.3125 121.078125-121.074219 121.078125v-196.609375zm0 0" fill="#ffc372"/><path d="m338.28125 135.84375v91.820312h-271.6875v-91.820312c0-74.902344 60.941406-135.84375 135.84375-135.84375 74.898438 0 135.84375 60.941406 135.84375 135.84375zm0 0" fill="#ff501a"/><path d="m338.28125 135.84375v91.820312h-135.84375v-227.664062c74.898438 0 135.84375 60.941406 135.84375 135.84375zm0 0" fill="#c91d00"/><path d="m129.394531 148.664062h42.660157v29.996094h-42.660157zm0 0" fill="#ffdaa8"/><path d="m232.816406 148.664062h42.660156v29.996094h-42.660156zm0 0" fill="#ffc372"/></svg>