<svg height="512" viewBox="0 0 60 60" width="512" xmlns="http://www.w3.org/2000/svg"><g id="036---Alien" fill="none"><g id="Icons" transform="translate(1 1)"><path id="Shape" d="m17.77 12.08c.78.07 1.53 1.18 2.26 1.31 1.28.23 2.49-.47 3.68-.2-2.57-6.93-6.85-9.19-9.71-9.89-.0558594.50534837-.234371.98938934-.52 1.41 2.1467722 1.9627829 3.6434303 4.53396488 4.29 7.37z" fill="#673ab7"/><path id="Shape" d="m40.23 12.08c-1 .09-1.94 1.24-2.86 1.42s-2.08-.54-3.08-.31c2.57-6.93 6.85-9.19 9.71-9.89.0558594.50534837.234371.98938934.52 1.41-2.1467722 1.9627829-3.6434303 4.53396488-4.29 7.37z" fill="#673ab7"/><path id="Shape" d="m29 58h-22c-1.1045695 0-2-.8954305-2-2v-7c0-4.46 3.38-7.92 7.12-10.39.9358862.2695524 1.9061305.4009397 2.88.39 3.3168523 1.3633312 6.1877377 3.6247162 8.29 6.53.7338793 1.1138591 1.2528125 2.3552287 1.53 3.66.1973599.9768858-.1374844 1.9852238-.88 2.65-.87.77-1.94 2-1.94 3.16 1 1.45 3.58 3 7 3z" fill="#60a917"/><path id="Shape" d="m53 49v7c0 1.1045695-.8954305 2-2 2h-22c3.41 0 6-1.55 7-3 0-1.2-1.07-2.39-1.94-3.16-.7425156-.6647762-1.0773599-1.6731142-.88-2.65.7346083-2.9315778 2.4805248-5.5097263 4.93-7.28 1.4975981-1.1769497 3.1412566-2.1550778 4.89-2.91.97412.015066 1.9449697-.1164033 2.88-.39 3.74 2.47 7.12 5.93 7.12 10.39z" fill="#549414"/><path id="Shape" d="m50 49v7c0 1.1045695-.8954305 2-2 2h-19c3.41 0 6-1.55 7-3 0-1.2-1.07-2.39-1.94-3.16-.7425156-.6647762-1.0773599-1.6731142-.88-2.65.7346083-2.9315778 2.4805248-5.5097263 4.93-7.28 1.4975981-1.1769497 3.1412566-2.1550778 4.89-2.91h.44c3.56 2.43 6.56 5.76 6.56 10z" fill="#60a917"/><path id="Shape" d="m58 22c0 8-2 8-3 8-.47 0-1.17-.68-1.78-1.38-.1960801-.2388219-.5159358-.3372939-.8123834-.2501034-.2964475.0871904-.5120579.3431524-.5476166.6501034-.86 5.92-2.86 9.98-8.86 9.98-1.7522249.7522785-3.3966364 1.7342174-4.89 2.92l-.11-.14c-5.7650284-2.3747247-12.2349716-2.3747247-18 0l-.11.14c-1.4965912-1.1811046-3.1403625-2.1626613-4.89-2.92-6 0-8-4.06-8.86-10-.03555871-.306951-.2511691-.562913-.54761664-.6501034-.29644754-.0871905-.61630322.0112815-.81238336.2501034-.61.72-1.31 1.4-1.78 1.4-1 0-3 0-3-8 0-5 2-9 4-9 1.442208.2360314 2.81081418.8005815 4 1.65.9906303.5943622 2.2671949.373091 3-.52 3.94-4.75 12.46-.13 18-.13s14.06-4.62 18 .13c.7328051.893091 2.0093697 1.1143622 3 .52 1.1891858-.8494185 2.557792-1.4139686 4-1.65 2 0 4 4 4 9z" fill="#9d27b0"/><path id="Shape" d="m51.72 29.93c-.92 5.42-3.03 9.07-8.72 9.07-.994212.4246187-1.9537889.9261397-2.87 1.5-2.34 1.5-1.89 1.58-2.13 1.28-.583245-.2576701-1.1809105-.4813773-1.79-.67 1.1879406-.8309503 2.4579075-1.5379767 3.79-2.11 6 0 8-4.06 8.86-10 .0355587-.306951.2511691-.562913.5476166-.6501034.2964476-.0871905.6163033.0112815.8123834.2501034.4086237.5367796.9181643.9885723 1.5 1.33z" fill="#6a1b9a"/><path id="Shape" d="m58 22c0 8-2 8-3 8-.4949791-.1238723-.9347154-.4088214-1.25-.81.68-.93 1.25-2.92 1.25-7.19 0-4-1.27-7.33-2.8-8.53.5653147-.267891 1.1758811-.4273167 1.8-.47 2 0 4 4 4 9z" fill="#6a1b9a"/><g fill="#f5f5f5"><circle id="Oval" cx="15" cy="23" r="5"/><circle id="Oval" cx="29" cy="23" r="5"/><circle id="Oval" cx="43" cy="23" r="5"/></g><path id="Shape" d="m38.11 41.92c-1.5418494 1.1372446-2.832145 2.5807415-3.79 4.24-3.3771911-1.5505786-7.2628089-1.5505786-10.64 0-.9750874-1.6467139-2.2625419-3.0870325-3.79-4.24l.11-.14c5.7650284-2.3747247 12.2349716-2.3747247 18 0z" fill="#673ab7"/><path id="Shape" d="m36 55c-4.5739939-1.3152537-9.4260061-1.3152537-14 0 0-1.18 1.05-2.38 1.94-3.16.7425156-.6647762 1.0773599-1.6731142.88-2.65-.2140849-1.0569211-.6027374-2.070797-1.15-3 1.2082729-.5671927 2.5027095-.9288238 3.83-1.07 2.3323365-.3210591 4.7075913.0510526 6.83 1.07-.5472626.929203-.9359151 1.9430789-1.15 3-.1973599.9768858.1374844 1.9852238.88 2.65.87.77 1.94 1.96 1.94 3.16z" fill="#6a1b9a"/><path id="Shape" d="m33 55c-3.5335213-1.0369691-7.2538555-1.2726927-10.89-.69.3922238-.9643261 1.0216971-1.8139431 1.83-2.47.7425156-.6647762 1.0773599-1.6731142.88-2.65-.2140849-1.0569211-.6027374-2.070797-1.15-3 1.2082729-.5671927 2.5027095-.9288238 3.83-1.07 1.3306281.1234228 2.6280743.4858947 3.83 1.07-.5472626.929203-.9359151 1.9430789-1.15 3-.1973599.9768858.1374844 1.9852238.88 2.65.94.78 1.94 1.98 1.94 3.16z" fill="#9d27b0"/><path id="Shape" d="m36 55s-2 3-7 3-7-3-7-3c4.5714286-1.3333333 9.4285714-1.3333333 14 0z" fill="#673ab7"/><circle id="Oval" cx="11" cy="3" fill="#e91e63" r="3"/><circle id="Oval" cx="47" cy="3" fill="#e91e63" r="3"/></g><g id="Outline" fill="#000" transform="translate(0 -1)"><path id="Shape" d="m30 19c-3.3137085 0-6 2.6862915-6 6s2.6862915 6 6 6 6-2.6862915 6-6-2.6862915-6-6-6zm0 10c-2.209139 0-4-1.790861-4-4s1.790861-4 4-4 4 1.790861 4 4-1.790861 4-4 4z"/><path id="Shape" d="m16 19c-3.3137085 0-6 2.6862915-6 6s2.6862915 6 6 6 6-2.6862915 6-6-2.6862915-6-6-6zm0 10c-2.209139 0-4-1.790861-4-4s1.790861-4 4-4 4 1.790861 4 4-1.790861 4-4 4z"/><circle id="Oval" cx="30" cy="25" r="1"/><circle id="Oval" cx="16" cy="25" r="1"/><circle id="Oval" cx="44" cy="25" r="1"/><path id="Shape" d="m44 19c-2.4267735 0-4.6145912 1.4618531-5.5432772 3.7038994s-.4153515 4.8227533 1.3006365 6.5387413 4.296695 2.2293225 6.5387413 1.3006365 3.7038994-3.1165037 3.7038994-5.5432772c0-3.3137085-2.6862915-6-6-6zm0 10c-2.209139 0-4-1.790861-4-4s1.790861-4 4-4 4 1.790861 4 4-1.790861 4-4 4z"/><path id="Shape" d="m55 14c-1.07 0-2.55.59-4.52 1.8-.5679089.3429948-1.3017415.2150008-1.72-.3-1.5459902-1.7736215-3.8458985-2.7025021-6.19-2.5.6405197-1.8220071 1.6634084-3.48590602 3-4.88 1.4224661 1.14065257 3.4362973 1.17500447 4.8968389.0835302 1.4605417-1.09147427 1.9981372-3.03252736 1.3072191-4.7198715-.6909181-1.68734415-2.4354814-2.69391995-4.2420863-2.44759326s-3.2180075 1.68321167-3.4319717 3.49393456c-3.1 1-7 3.48-9.49 9.8-2.9762933.8801556-6.1437067.8801556-9.12 0-2.55-6.33-6.44-8.84-9.49-9.8-.2139642-1.81072289-1.6253668-3.24760787-3.4319717-3.49393456s-3.55116824.76024911-4.24208631 2.44759326c-.69091808 1.68734414-.15332259 3.62839723 1.30721909 4.7198715 1.46054162 1.09147427 3.47437282 1.05712237 4.89683892-.0835302 1.3006284 1.40347861 2.289014 3.0666929 2.9 4.88-2.3441015-.2025021-4.6440098.7263785-6.19 2.5-.4187022.515662-1.1553656.6398669-1.72.29-1.97-1.2-3.45-1.79-4.52-1.79-2.76 0-5 4.49-5 10 0 6.39 1.16 9 4 9 .67 0 1.34-.42 2.22-1.37.54 3.53 1.67 7.32 4.89 9.18-4.05 3.06-6.11 6.48-6.11 10.19v7c0 1.6568542 1.34314575 3 3 3h44c1.6568542 0 3-1.3431458 3-3v-7c0-3.71-2.06-7.13-6.11-10.19 3.22-1.86 4.35-5.65 4.89-9.18.88.95 1.55 1.37 2.22 1.37 2.84 0 4-2.61 4-9 0-5.51-2.24-10-5-10zm-7-11c1.1045695 0 2 .8954305 2 2s-.8954305 2-2 2-2-.8954305-2-2 .8954305-2 2-2zm-3.77 3.57c-1.789968 1.8463584-3.0954071 4.1068292-3.8 6.58-1.15.15-2.32.39-3.46.64 2.03-4.41 4.9-6.37 7.26-7.22zm-32.23.43c-.8776101.00088438-1.6532698-.57046787-1.9126607-1.40886914-.25939095-.83840128.0580937-1.74795877.7828697-2.24283267.7247759-.4948739 1.6874989-.4594367 2.3739308.08738282s.9361876 1.47725676.6158602 2.29431899c-.3000624.76537201-1.0379105 1.26917157-1.86 1.27zm3.77-.43c2.36.85 5.23 2.81 7.23 7.23-1.14-.26-2.31-.5-3.46-.65-.6916747-2.4719838-1.9872152-4.73316594-3.77-6.58zm7.84 52.43h-7.61v-7c0-.5522847-.4477153-1-1-1s-1 .4477153-1 1v7h-6c-.55228475 0-1-.4477153-1-1v-7c0-3.32 2.14-6.45 6.32-9.3.8101963.188267 1.6382921.2888454 2.47.3 1.15.5 7.93 3.69 9.05 9.38.129637.6309284-.0877334 1.2830394-.57 1.71-1.14 1.01-2.27 2.38-2.27 3.91 0 0 0 .26.05.31.3967667.6657258.9280917 1.241328 1.56 1.69zm1.39-1.47c3.2966394-.699466 6.7033606-.699466 10 0-3.0490006 1.9470754-6.9509994 1.9470754-10 0zm-.29-2c.2738339-.3436623.5784278-.6616449.91-.95.9925252-.9050084 1.4432269-2.2609009 1.19-3.58-.1654768-.7961787-.420429-1.571099-.76-2.31 2.5578548-.8916506 5.3421452-.8916506 7.9 0-.339571.738901-.5945232 1.5138213-.76 2.31-.2557424 1.329149.2033836 2.6951438 1.21 3.6.3315722.2883551.6361661.6063377.91.95-3.5032003-.7185249-7.1154528-.7219262-10.62-.01zm10.23-8.62c-3.1702777-1.1998154-6.6697223-1.1998154-9.84 0-.6651152-.993659-1.4436934-1.9064748-2.32-2.72 4.6973686-1.5799729 9.7826314-1.5799729 14.48 0-.8839229.8155079-1.6692746 1.7317514-2.34 2.73zm18.06 4.09v7c0 .5522847-.4477153 1-1 1h-6v-7c0-.5522847-.4477153-1-1-1s-1 .4477153-1 1v7h-7.61c.6478758-.4458008 1.1961166-1.0212834 1.61-1.69.0313265-.1247298.0313265-.2552702 0-.38-.1885996-1.537894-1.0070436-2.9285244-2.26-3.84-.4822666-.4269606-.699637-1.0790716-.57-1.71 1.11-5.67 7.9-8.88 9.05-9.38.8317079-.0111546 1.6598037-.111733 2.47-.3 4.17 2.85 6.31 5.98 6.31 9.3zm3.07-20c-.4083251-.2733682-.7696717-.6110753-1.07-1-.451693-.5373207-1.1782327-.7569427-1.8519389-.5598133-.6737062.1971295-1.16726.7737564-1.2580611 1.4698133-.95 6.53-3.16 9.09-7.89 9.09-2.0280707.0086745-3.9424909-.9355753-5.17-2.55-.3239123-.4021248-.9007244-.4915129-1.3311547-.206288s-.5729246.8512619-.3288453 1.306288c.9697831 1.3139807 2.3003514 2.3179865 3.83 2.89-.6884407.3880275-1.3560269.8119447-2 1.27-5.8060341-2.2698674-12.2539659-2.2698674-18.06 0-.6179804-.4557173-1.2588137-.8796018-1.92-1.27 1.5113701-.5803748 2.8236516-1.5836799 3.78-2.89.2440793-.4550261.101585-1.0210631-.3288453-1.306288s-1.0072424-.1958368-1.3311547.206288c-1.2281215 1.5975259-3.1249961 2.5385823-5.14 2.55-4.73 0-6.94-2.56-7.87-9.12-.09342931-.7007351-.59486157-1.2786749-1.27541204-1.4700117-.68055046-.1913369-1.40968757.0406281-1.85458796.5900117-.30635427.3905577-.67455229.7283541-1.09 1-.54 0-1.91-.32-1.91-7 0-4.88 2-8 3-8 .31 0 1.27.15 3.47 1.5 1.42246198.8580515 3.2584577.5478022 4.32-.73 2.35-2.86 7.18-1.63 11-.76 5.79 1.32 6.69 1.32 12.49 0 3.75-.86 8.64-2.08 11 .76 1.0615423 1.2778022 2.897538 1.5880515 4.32.73 2.13-1.35 3.09-1.5 3.4-1.5 1 0 3 3.12 3 8 0 6.68-1.37 7-1.93 7z"/></g></g></svg>