<?xml version="1.0" encoding="iso-8859-1"?>
<!-- Generator: Adobe Illustrator 19.0.0, SVG Export Plug-In . SVG Version: 6.00 Build 0)  -->
<svg version="1.1" id="Layer_1" xmlns="http://www.w3.org/2000/svg" xmlns:xlink="http://www.w3.org/1999/xlink" x="0px" y="0px"
	 viewBox="0 0 512.001 512.001" style="enable-background:new 0 0 512.001 512.001;" xml:space="preserve">
<circle style="fill:#EFEFEF;" cx="255.901" cy="256.15" r="248.402"/>
<path style="fill:#E2D9D9;" d="M124.667,235.591c0-120.557,101.08-217.152,222.512-210.541
	C184.821-39.139,7.495,80.541,7.495,256.145c0,137.19,111.215,248.406,248.404,248.406c77.084,0,145.966-35.114,191.528-90.217
	C307.953,501.836,124.667,401.666,124.667,235.591z"/>
<g>
	<path style="fill:#ED4343;" d="M382.779,274.312l-42.495-73.6c-0.893-1.547-2.543-2.499-4.329-2.499h-84.987
		c-1.785,0-3.436,0.953-4.329,2.499l-42.493,73.6c-0.893,1.547-0.893,3.452,0,4.998l42.493,73.6
		c0.893,1.547,2.543,2.499,4.329,2.499h84.987c1.785,0,3.436-0.953,4.329-2.499l42.495-73.6
		C383.672,277.764,383.672,275.858,382.779,274.312z"/>
	<path style="fill:#ED4343;" d="M427.644,435.606H382.71l-27.998,48.496C381.888,472.304,406.546,455.803,427.644,435.606z"/>
	<path style="fill:#ED4343;" d="M496.432,318.418c5.137-19.9,7.873-40.766,7.873-62.272c0-10.569-0.665-20.982-1.946-31.204
		l-29.947,51.871L496.432,318.418z"/>
	<path style="fill:#ED4343;" d="M345.91,24.56l-8.577,14.856l45.379,78.598h79.668C434.247,76.046,393.662,43.135,345.91,24.56z"/>
	<path style="fill:#ED4343;" d="M113.456,118.016h90.758l45.381-78.598L231.97,8.891c-55.431,5.3-105.541,28.812-144.284,64.491
		L113.456,118.016z"/>
</g>
<g>
	<path style="fill:#C93F3F;" d="M160.469,118.016c21.404-31.807,51.253-57.453,86.327-73.748l2.8-4.85L231.97,8.891
		c-1.998,0.689-77.248,2.755-144.284,64.491l25.77,44.634H160.469z"/>
	<path style="fill:#C93F3F;" d="M243.851,504.255l-39.636-68.649h-90.759l-9.738,16.868
		C142.798,482.811,191.171,501.74,243.851,504.255z"/>
	<path style="fill:#C93F3F;" d="M69.363,198.213H14.304c-4.441,18.588-6.808,37.982-6.808,57.932
		c0,35.295,7.377,68.86,20.648,99.265h41.219l45.381-78.598L69.363,198.213z"/>
</g>
<path d="M500.296,179.926c-1.23-3.954-5.431-6.164-9.387-4.933c-3.954,1.23-6.162,5.433-4.932,9.387
	c3.949,12.699,6.822,25.701,8.614,38.893l-26.51,45.918h-79.531l-41.108-71.2l39.713-72.601h71.234
	c7.18,11.133,13.505,22.959,18.866,35.403c1.637,3.803,6.047,5.557,9.851,3.919c3.804-1.638,5.558-6.049,3.92-9.851
	C440.753,38.157,312.865-23.601,190.482,8.528c-0.131,0.034-0.261,0.069-0.392,0.103c-1.537,0.406-3.069,0.824-4.597,1.259
	c-0.216,0.061-0.431,0.126-0.647,0.187c-25.49,7.324-50.348,18.777-73.637,34.808c-0.033,0.023-0.067,0.046-0.1,0.069
	c-12.813,8.829-24.923,18.878-36.162,30.118c-99.623,99.622-100.238,261.663,0,361.902c50.021,50.022,115.134,74.952,180.95,74.952
	C428.323,511.926,551.493,344.543,500.296,179.926z M424.43,427.985h-37.275l-39.713-72.6l41.108-71.2h79.531l20.274,35.116
	C476.956,361.135,454.543,398.468,424.43,427.985z M373.691,466.101l13.349-23.121h20.608
	C397.036,451.61,385.679,459.352,373.691,466.101z M496.711,249.591c0.424,16.246-0.763,32.344-3.521,48.094l-12.122-20.997
	L496.711,249.591z M334.514,347.788h-82.101l-41.05-71.101l16.615-28.778c2.07-3.586,0.842-8.171-2.744-10.242
	c-3.588-2.069-8.172-0.842-10.242,2.744l-16.615,28.778h-79.305l-41.688-72.203c9.862-37.731,32.404-64.201,39.262-71.597h83.124
	l39.714,72.601l-12.136,21.021c-2.07,3.586-0.842,8.171,2.744,10.242c3.588,2.069,8.172,0.842,10.242-2.744l12.079-20.922h82.101
	l41.051,71.101L334.514,347.788z M199.77,427.985h-82.909c-27.179-31.401-37.052-62.5-39.494-71.568l41.705-72.232h79.305
	l41.107,71.2L199.77,427.985z M20.32,205.587h44.714l41.051,71.101l-41.051,71.101H33.17
	C14.331,302.232,10.293,252.432,20.32,205.587z M227.919,16.747l13.018,22.547l-41.051,71.101h-82.101L97.274,74.869
	C133.961,42.704,179.355,22.378,227.919,16.747z M332.633,46.15l41.477,71.84l-39.713,72.601h-81.868l-39.714-72.601l41.626-72.095
	C263.161,44.157,291.248,39.865,332.633,46.15z M387.039,110.395l-41.05-71.101l3.145-5.447
	c37.801,15.852,72.148,41.543,98.691,76.548H387.039z M334.953,28.418l-1.547,2.678c-40.464-5.97-68.579-2.415-80.05-0.281
	l-8.905-15.423C275.894,13.911,306.453,18.531,334.953,28.418z M86.023,85.373l18.139,31.417
	c-8.945,9.894-30.153,36.267-40.588,73.803H24.026C35.427,150.246,57.097,114.17,86.023,85.373z M39.985,362.784h23.568
	c3.601,12.493,14.339,42.586,40.731,73.59l-2.627,4.552C76.058,419.536,54.957,392.941,39.985,362.784z M248.274,496.798
	l-8.989-15.57c-2.07-3.587-6.657-4.813-10.242-2.744c-3.586,2.07-4.814,6.656-2.744,10.242l3.948,6.838
	c-42.372-4.511-82.414-20.131-116.667-45.296l4.207-7.287h82.101l12.997,22.511c2.07,3.587,6.658,4.814,10.242,2.744
	c3.586-2.07,4.814-6.656,2.744-10.242l-13.054-22.609l39.714-72.6h81.868l39.713,72.6l-24.603,42.615
	C318.521,491.115,284.283,497.924,248.274,496.798z"/>
<g>
</g>
<g>
</g>
<g>
</g>
<g>
</g>
<g>
</g>
<g>
</g>
<g>
</g>
<g>
</g>
<g>
</g>
<g>
</g>
<g>
</g>
<g>
</g>
<g>
</g>
<g>
</g>
<g>
</g>
</svg>
