<svg id="Layer_5" enable-background="new 0 0 64 64" height="512" viewBox="0 0 64 64" width="512" xmlns="http://www.w3.org/2000/svg"><g><g><g><path d="m58 12h-52c-2.21 0-4 1.79-4 4v16 16c0 2.21 1.79 4 4 4h52c2.21 0 4-1.79 4-4v-16-16c0-2.21-1.79-4-4-4z" fill="#969faa"/></g><g><path d="m6 20h4v4h-4z" fill="#e6e9ed"/></g><g><path d="m6 40h4v4h-4z" fill="#e6e9ed"/></g><g><circle cx="56" cy="22" fill="#fcd770" r="2"/></g><g><circle cx="56" cy="42" fill="#fcd770" r="2"/></g><g><path d="m49 16h-34c-.55 0-1 .45-1 1v15 6h6l3 3h6l3 3h18v-12-15c0-.55-.45-1-1-1z" fill="#69d6f4"/></g><g><path d="m29 22.4-4.89 3.6 4.89 3.6c-1.12 1.45-2.89 2.4-4.89 2.4-3.37 0-6.11-2.69-6.11-6s2.74-6 6.11-6c2 0 3.77.95 4.89 2.4z" fill="#ff826e"/></g><g><path d="m46 36v2h-4-4-4v-2c0-3.31 2.69-6 6-6 1.66 0 3.16.67 4.24 1.76 1.09 1.08 1.76 2.58 1.76 4.24z" fill="#ffeaa7"/></g><g><path d="m42.87 40.6c.09.27.13.54.13.82 0 1.42-1.16 2.58-2.58 2.58h-.84c-.71 0-1.36-.29-1.82-.76-.47-.46-.76-1.11-.76-1.82 0-.28.04-.55.13-.82l.87-2.6h4z" fill="#fcd770"/></g><g><path d="m50 44v3c0 .55-.45 1-1 1h-34c-.55 0-1-.45-1-1v-9h6l3 3h6l3 3h7.58.84z" fill="#cf9e76"/></g></g><g><path d="m58 11h-52c-2.757 0-5 2.243-5 5v32c0 2.757 2.243 5 5 5h52c2.757 0 5-2.243 5-5v-32c0-2.757-2.243-5-5-5zm3 37c0 1.654-1.346 3-3 3h-52c-1.654 0-3-1.346-3-3v-32c0-1.654 1.346-3 3-3h52c1.654 0 3 1.346 3 3z"/><path d="m49 15h-34c-1.103 0-2 .897-2 2v30c0 1.103.897 2 2 2h34c1.103 0 2-.897 2-2v-30c0-1.103-.897-2-2-2zm0 2 .001 26h-5.386c.239-.479.385-1.011.385-1.581 0-.384-.062-.765-.184-1.133l-.428-1.286h3.612v-3c0-3.859-3.14-7-7-7s-7 3.141-7 7v3h3.612l-.429 1.288c-.121.366-.183.747-.183 1.131 0 .57.146 1.102.384 1.581h-3.97l-3-3h-6l-3-3h-5.414v-20zm-11 24.419c0-.17.027-.339.081-.5l.64-1.919h2.558l.639 1.917c.055.163.082.332.082.502 0 .872-.709 1.581-1.581 1.581h-.838c-.872 0-1.581-.709-1.581-1.581zm-3-4.419v-1c0-2.757 2.243-5 5-5s5 2.243 5 5v1zm-20 10v-8h4.586l3 3h6l3 3h7.995.838 8.582v2z"/><path d="m9 29h-2v2h-2v2h2v2h2v-2h2v-2h-2z"/><path d="m55 29h2v2h-2z"/><path d="m57 31h2v2h-2z"/><path d="m53 31h2v2h-2z"/><path d="m55 33h2v2h-2z"/><path d="m56 39c-1.654 0-3 1.346-3 3s1.346 3 3 3 3-1.346 3-3-1.346-3-3-3zm0 4c-.551 0-1-.448-1-1s.449-1 1-1 1 .448 1 1-.449 1-1 1z"/><path d="m56 19c-1.654 0-3 1.346-3 3s1.346 3 3 3 3-1.346 3-3-1.346-3-3-3zm0 4c-.551 0-1-.448-1-1s.449-1 1-1 1 .448 1 1-.449 1-1 1z"/><path d="m5 45h6v-6h-6zm2-4h2v2h-2z"/><path d="m5 25h6v-6h-6zm2-4h2v2h-2z"/><path d="m24.114 33c2.25 0 4.319-1.02 5.68-2.797l.62-.809-4.613-3.394 4.612-3.395-.62-.809c-1.359-1.776-3.429-2.796-5.679-2.796-3.923 0-7.114 3.141-7.114 7s3.191 7 7.114 7zm0-12c1.272 0 2.464.451 3.391 1.263l-5.078 3.737 5.078 3.737c-.927.812-2.119 1.263-3.391 1.263-2.82 0-5.114-2.243-5.114-5s2.294-5 5.114-5z"/><path d="m32 25h2v2h-2z"/><path d="m28 25h2v2h-2z"/><path d="m36 25h2v2h-2z"/></g></g></svg>