<svg height="512" viewBox="0 0 60 60" width="512" xmlns="http://www.w3.org/2000/svg"><g id="Page-1" fill="none" fill-rule="evenodd"><g id="026---Algebra-Book" fill-rule="nonzero"><g id="colour" transform="translate(1 1)"><path id="Shape" d="m58 8v42c0 1.1045695-.8954305 2-2 2h-18.52c-1.2645801.0077761-2.3884892.8077114-2.81 2-.8364224 2.4166642-3.1126834 4.037578-5.67 4.037578s-4.8335776-1.6209138-5.67-4.037578c-.4215108-1.1922886-1.5454199-1.9922239-2.81-2h-18.52c-1.1045695 0-2-.8954305-2-2v-42c0-1.1045695.8954305-2 2-2h2v41c0 .5522847.44771525 1 1 1h48c.5522847 0 1-.4477153 1-1v-41h2c1.1045695 0 2 .8954305 2 2z" fill="#ed432a"/><path id="Shape" d="m56 6h-2v.28c.6150891.35510459.9957131 1.00977788 1 1.72v42c0 1.1045695-.8954305 2-2 2h3c1.1045695 0 2-.8954305 2-2v-42c0-1.1045695-.8954305-2-2-2z" fill="#c21e11"/><path id="Shape" d="m31.67 54c-.6651334 1.8896257-2.2294519 3.3226464-4.17 3.82.4898424.1260563.9942408.1865841 1.5.18 2.547521.0055794 4.8208304-1.5981662 5.67-4 .4215108-1.1922886 1.5454199-1.9922239 2.81-2h-3c-1.2645801.0077761-2.3884892.8077114-2.81 2z" fill="#c21e11"/><path id="Shape" d="m29 48h-24c-.55228475 0-1-.4477153-1-1v-3h21c2.209139 0 4 1.790861 4 4z" fill="#9d9d9d"/><path id="Shape" d="m54 44v3c0 .5522847-.4477153 1-1 1h-24c0-2.209139 1.790861-4 4-4z" fill="#9d9d9d"/><path id="Shape" d="m54 2v42h-21c-2.209139 0-4 1.790861-4 4v-44c0-2.209139 1.790861-4 4-4h19c1.1045695 0 2 .8954305 2 2z" fill="#f4f4f4"/><path id="Shape" d="m52 0h-3c1.1045695 0 2 .8954305 2 2v42h3v-42c0-1.1045695-.8954305-2-2-2z" fill="#ced7db"/><path id="Shape" d="m29 4v44c0-2.209139-1.790861-4-4-4h-21v-42c0-1.1045695.8954305-2 2-2h19c2.209139 0 4 1.790861 4 4z" fill="#f4f4f4"/><path id="Shape" d="m25 0h-3c2.209139 0 4 1.790861 4 4v40.14c1.7614029.4547821 2.9940928 2.040843 3 3.86v-44c0-2.209139-1.790861-4-4-4z" fill="#ced7db"/></g><g id="outline" fill="#000"><path id="Shape" d="m57 6h-1v-3c0-1.65685425-1.3431458-3-3-3h-19c-1.5737865 0-3.0557281.74097079-4 2-.9442719-1.25902921-2.4262135-2-4-2h-19c-1.65685425 0-3 1.34314575-3 3v3h-1c-1.65685425 0-3 1.34314575-3 3v42c0 1.6568542 1.34314575 3 3 3h18.52c.833286.0014585 1.5783507.5194179 1.87 1.3.9758261 2.8194416 3.6314639 4.7105077 6.615 4.7105077s5.6391739-1.8910661 6.615-4.7105077c.2754745-.7885745 1.0247844-1.3122858 1.86-1.3h18.52c1.6568542 0 3-1.3431458 3-3v-42c0-1.65685425-1.3431458-3-3-3zm-23-4h19c.5522847 0 1 .44771525 1 1v41h-20c-1.0827961-.0058742-2.1372876.3456229-3 1v-40c0-1.65685425 1.3431458-3 3-3zm20 43.9999996v2.0000004h-22.83c.4239753-1.1991837 1.5580738-2.0006668 2.83-2zm-47-43.9999996h19c1.6568542 0 3 1.34314575 3 3v40c-.8627124-.6543771-1.9172039-1.0058742-3-1h-20v-41c0-.55228475.44771525-1 1-1zm-1 43.9999996 20 .0000004c1.2719262-.0006668 2.4060247.8008163 2.83 2h-22.83zm52 5.0000004c0 .5522847-.4477153 1-1 1h-18.52c-1.6861341-.0130973-3.1936954 1.0482258-3.75 2.64-.6970187 2.0138868-2.5939028 3.3646484-4.725 3.3646484s-4.0279813-1.3507616-4.725-3.3646484c-.5726008-1.5837898-2.0758797-2.6392835-3.76-2.64h-18.52c-.55228475 0-1-.4477153-1-1v-42c0-.55228475.44771525-1 1-1h1v40c0 1.1045695.8954305 2 2 2h48c1.1045695 0 2-.8954305 2-2v-40h1c.5522847 0 1 .44771525 1 1z"/><path id="Shape" d="m8.29 15.71c.1877666.1893127.44336246.2957983.71.2957983s.5222334-.1064856.71-.2957983l1.29-1.3 1.29 1.3c.1877666.1893127.4433625.2957983.71.2957983s.5222334-.1064856.71-.2957983c.1893127-.1877666.2957983-.4433625.2957983-.71s-.1064856-.5222334-.2957983-.71l-1.3-1.29 1.3-1.29c.3921221-.3921222.3921221-1.0278778 0-1.42-.3921222-.39212213-1.0278778-.39212215-1.42 0l-1.29 1.3-1.29-1.3c-.39212217-.39212216-1.02787782-.39212216-1.41999999 0-.39212217.3921222-.39212217 1.0278778-.00000001 1.42l1.3 1.29-1.3 1.29c-.18931265.1877666-.29579832.4433625-.29579832.71s.10648567.5222334.29579832.71z"/><path id="Shape" d="m17 16h2c.5522847 0 1-.4477153 1-1s-.4477153-1-1-1h-2c-.5522847 0-1 .4477153-1 1s.4477153 1 1 1z"/><path id="Shape" d="m17 12h2c.5522847 0 1-.4477153 1-1s-.4477153-1-1-1h-2c-.5522847 0-1 .4477153-1 1s.4477153 1 1 1z"/><path id="Shape" d="m25 22h-15c-.55228475 0-1 .4477153-1 1s.44771525 1 1 1h15c.5522847 0 1-.4477153 1-1s-.4477153-1-1-1z"/><path id="Shape" d="m25 34h-15c-.55228475 0-1 .4477153-1 1s.44771525 1 1 1h15c.5522847 0 1-.4477153 1-1s-.4477153-1-1-1z"/><path id="Shape" d="m25 30h-7c-.5522847 0-1 .4477153-1 1s.4477153 1 1 1h7c.5522847 0 1-.4477153 1-1s-.4477153-1-1-1z"/><path id="Shape" d="m10 28h10c.5522847 0 1-.4477153 1-1s-.4477153-1-1-1h-10c-.55228475 0-1 .4477153-1 1s.44771525 1 1 1z"/><path id="Shape" d="m21.77 9.87c.4779792.2713883 1.0853915.10613642 1.36-.37.2423998-.41983985.7510262-.60534242 1.2068-.44013545.4557739.16520696.7274031.63353329.6444853 1.11118145-.0829179.4776482-.4964973.8270249-.9812853.828954-.5522847 0-1 .4477153-1 1v1c0 .5522847.4477153 1 1 1s1-.4477153 1-1v-.17c1.2514921-.4442438 2.0619932-1.6584253 1.9923038-2.98459591-.0696895-1.32617057-1.0029841-2.44871669-2.2941443-2.75934577s-2.6329044.26458508-3.2981595 1.41394168c-.133545.23052374-.1695837.50480629-.1001217.76200366.0694621.25719736.238682.47604512.4701217.60799634z"/><circle id="Oval" cx="24" cy="17" r="1"/><path id="Shape" d="m25 26h-1c-.5522847 0-1 .4477153-1 1s.4477153 1 1 1h1c.5522847 0 1-.4477153 1-1s-.4477153-1-1-1z"/><path id="Shape" d="m10 32h4c.5522847 0 1-.4477153 1-1s-.4477153-1-1-1h-4c-.55228475 0-1 .4477153-1 1s.44771525 1 1 1z"/><path id="Shape" d="m19 38h-9c-.55228475 0-1 .4477153-1 1s.44771525 1 1 1h9c.5522847 0 1-.4477153 1-1s-.4477153-1-1-1z"/><path id="Shape" d="m35 9h15c.5522847 0 1-.44771525 1-1s-.4477153-1-1-1h-15c-.5522847 0-1 .44771525-1 1s.4477153 1 1 1z"/><path id="Shape" d="m35 21h15c.5522847 0 1-.4477153 1-1s-.4477153-1-1-1h-15c-.5522847 0-1 .4477153-1 1s.4477153 1 1 1z"/><path id="Shape" d="m42 16c0 .5522847.4477153 1 1 1h7c.5522847 0 1-.4477153 1-1s-.4477153-1-1-1h-7c-.5522847 0-1 .4477153-1 1z"/><path id="Shape" d="m35 13h10c.5522847 0 1-.4477153 1-1s-.4477153-1-1-1h-10c-.5522847 0-1 .4477153-1 1s.4477153 1 1 1z"/><path id="Shape" d="m50 13c.5522847 0 1-.4477153 1-1s-.4477153-1-1-1h-1c-.5522847 0-1 .4477153-1 1s.4477153 1 1 1z"/><path id="Shape" d="m35 17h4c.5522847 0 1-.4477153 1-1s-.4477153-1-1-1h-4c-.5522847 0-1 .4477153-1 1s.4477153 1 1 1z"/><path id="Shape" d="m35 25h9c.5522847 0 1-.4477153 1-1s-.4477153-1-1-1h-9c-.5522847 0-1 .4477153-1 1s.4477153 1 1 1z"/><path id="Shape" d="m33.29 36.71c.1877666.1893127.4433625.2957983.71.2957983s.5222334-.1064856.71-.2957983l4-4c.3921222-.3921222.3921222-1.0278778 0-1.42s-1.0278778-.3921222-1.42 0l-1.29 1.3-1.29-1.3c-.3921222-.3921222-1.0278778-.3921222-1.42 0s-.3921222 1.0278778 0 1.42l1.3 1.29-1.3 1.29c-.1893127.1877666-.2957983.4433625-.2957983.71s.1064856.5222334.2957983.71z"/><path id="Shape" d="m44 35h-2c-.5522847 0-1 .4477153-1 1s.4477153 1 1 1h2c.5522847 0 1-.4477153 1-1s-.4477153-1-1-1z"/><path id="Shape" d="m44 31h-2c-.5522847 0-1 .4477153-1 1s.4477153 1 1 1h2c.5522847 0 1-.4477153 1-1s-.4477153-1-1-1z"/><path id="Shape" d="m46.4 29.5c-.133545.2305237-.1695837.5048063-.1001217.7620037.0694621.2571973.238682.4760451.4701217.6079963.4779792.2713883 1.0853915.1061364 1.36-.37.2423998-.4198398.7510262-.6053424 1.2068-.4401355.4557739.165207.7274031.6335333.6444853 1.1111815-.0829179.4776482-.4964973.8270249-.9812853.828954-.5522847 0-1 .4477153-1 1v1c0 .5522847.4477153 1 1 1s1-.4477153 1-1v-.17c1.2514921-.4442438 2.0619932-1.6584253 1.9923038-2.9845959-.0696895-1.3261706-1.0029841-2.4487167-2.2941443-2.7593458s-2.6329044.2645851-3.2981595 1.4139417z"/><circle id="Oval" cx="49" cy="38" r="1"/></g></g></g></svg>