<svg height="512" viewBox="0 0 58 59" width="512" xmlns="http://www.w3.org/2000/svg"><g id="Page-1" fill="none" fill-rule="evenodd"><g id="029---FM-Radio" fill-rule="nonzero"><path id="Shape" d="m9 11c-.52391949.0010998-.95986811-.4023595-.99926759-.9247966-.03939948-.52243706.33110892-.98671513.84926759-1.0642034l45.15-6.87v-1.141c0-.55228475.4477153-1 1-1s1 .44771525 1 1v4c0 .55228475-.4477153 1-1 1s-1-.44771525-1-1v-.836l-44.85 6.825c-.04963493.0075879-.09978913.0112659-.15.011z" fill="#95a5a5"/><rect id="Rectangle-path" fill="#3f5c6c" height="42" rx="4" width="58" y="13"/><path id="Shape" d="m5 55h8v2c0 1.1045695-.8954305 2-2 2h-4c-1.1045695 0-2-.8954305-2-2z" fill="#2c3e50"/><path id="Shape" d="m46 55h8v2c0 1.1045695-.8954305 2-2 2h-4c-1.1045695 0-2-.8954305-2-2z" fill="#2c3e50"/><path id="Shape" d="m53 41c0 .34-.02.67-.05 1-.1066707 1.0726703-.3905227 2.1202193-.84 3.1-.266109.6161263-.6016097 1.1998975-1 1.74-.6265085.8765006-1.3934994 1.6434915-2.27 2.27-.5401025.3983903-1.1238737.733891-1.74 1-.9797807.4494773-2.0273297.7333293-3.1.84-.33.03-.66.05-1 .05s-.67-.02-1-.05c-1.0726703-.1066707-2.1202193-.3905227-3.1-.84-.6161263-.266109-1.1998975-.6016097-1.74-1-.8765006-.6265085-1.6434915-1.3934994-2.27-2.27-.3983903-.5401025-.733891-1.1238737-1-1.74-.4494773-.9797807-.7333293-2.0273297-.84-3.1-.03-.33-.05-.66-.05-1s.02-.67.05-1c.1066707-1.0726703.3905227-2.1202193.84-3.1.266109-.6161263.6016097-1.1998975 1-1.74.6265085-.8765006 1.3934994-1.6434915 2.27-2.27.5401025-.3983903 1.1238737-.733891 1.74-1 .9797807-.4494773 2.0273297-.7333293 3.1-.84.33-.03.66-.05 1-.05s.67.02 1 .05c1.0726703.1066707 2.1202193.3905227 3.1.84.6161263.266109 1.1998975.6016097 1.74 1 .8765006.6265085 1.6434915 1.3934994 2.27 2.27.3983903.5401025.733891 1.1238737 1 1.74.4494773.9797807.7333293 2.0273297.84 3.1.03.33.05.66.05 1z" fill="#95a5a5"/><path id="Shape" d="m12 17v10h-6c-1.10320187-.0032948-1.9967052-.8967981-2-2v-6c.0032948-1.1032019.89679813-1.9967052 2-2z" fill="#2fa8cc"/><path id="Shape" d="m54 19v6c-.0032948 1.1032019-.8967981 1.9967052-2 2h-40v-10h40c1.1032019.0032948 1.9967052.8967981 2 2z" fill="#67b9cc"/><rect id="Rectangle-path" fill="#67b9cc" height="20" rx="2" width="25" x="4" y="31"/><circle id="Oval" cx="43" cy="41" fill="#7f8c8d" r="4"/><circle id="Oval" cx="43" cy="41" fill="#95a5a5" r="1"/><g fill="#7f8c8d"><path id="Shape" d="m44 31.05v.95c0 .5522847-.4477153 1-1 1s-1-.4477153-1-1v-.95c.33-.03.66-.05 1-.05s.67.02 1 .05z"/><path id="Shape" d="m44 50v.95c-.33.03-.66.05-1 .05s-.67-.02-1-.05v-.95c0-.5522847.4477153-1 1-1s1 .4477153 1 1z"/><path id="Shape" d="m39 34.07c-.2288501.1362964-.5028629.1749377-.7604798.1072427-.257617-.0676949-.4772366-.2360498-.6095202-.4672427l-.47-.82c.5401025-.3983903 1.1238737-.733891 1.74-1l.47.82c.2713883.4779792.1061364 1.0853915-.37 1.36z"/><path id="Shape" d="m48.84 49.11c-.5401025.3983903-1.1238737.733891-1.74 1l-.47-.82c-.2761424-.4804877-.1104877-1.0938576.37-1.37.4804877-.2761423 1.0938576-.1104877 1.37.37z"/><path id="Shape" d="m36.07 37c-.2746085.4761364-.8820208.6413883-1.36.37l-.82-.47c.266109-.6161263.6016097-1.1998975 1-1.74l.82.47c.4751892.2808259.6357495.8918472.36 1.37z"/><path id="Shape" d="m52.11 45.1c-.266109.6161263-.6016097 1.1998975-1 1.74l-.82-.47c-.4804877-.2761424-.6461423-.8895123-.3699999-1.37.2761423-.4804877.8895122-.6461423 1.3699999-.37z"/><path id="Shape" d="m35 41c0 .5522847-.4477153 1-1 1h-.95c-.03-.33-.05-.66-.05-1s.02-.67.05-1h.95c.5522847 0 1 .4477153 1 1z"/><path id="Shape" d="m53 41c0 .34-.02.67-.05 1h-.95c-.5522847 0-1-.4477153-1-1s.4477153-1 1-1h.95c.03.33.05.66.05 1z"/><path id="Shape" d="m35.71 46.37-.82.47c-.3983903-.5401025-.733891-1.1238737-1-1.74l.82-.47c.4804877-.2761423 1.0938576-.1104877 1.3699999.37.2761424.4804877.1104878 1.0938576-.3699999 1.37z"/><path id="Shape" d="m52.11 36.9-.82.47c-.4779792.2713883-1.0853915.1061364-1.36-.37-.2757495-.4781528-.1151892-1.0891741.36-1.37l.82-.47c.3983903.5401025.733891 1.1238737 1 1.74z"/><path id="Shape" d="m39.37 49.29-.47.82c-.6161263-.266109-1.1998975-.6016097-1.74-1l.47-.82c.2761424-.4804877.8895123-.6461423 1.37-.37.4804877.2761424.6461424.8895123.37 1.37z"/><path id="Shape" d="m48.84 32.89-.47.82c-.1322836.2311929-.3519032.3995478-.6095202.4672427-.2576169.067695-.5316297.0290537-.7604798-.1072427-.4761364-.2746085-.6413883-.8820208-.37-1.36l.47-.82c.6161263.266109 1.1998975.6016097 1.74 1z"/></g><path id="Shape" d="m54 21v2h-6c0 .5522847-.4477153 1-1 1s-1-.4477153-1-1h-5c0 .5522847-.4477153 1-1 1s-1-.4477153-1-1h-5c0 .5522847-.4477153 1-1 1s-1-.4477153-1-1h-5c0 .5522847-.4477153 1-1 1s-1-.4477153-1-1h-5c0 .5522847-.4477153 1-1 1s-1-.4477153-1-1h-14v-2h14c0-.5522847.4477153-1 1-1s1 .4477153 1 1h5c0-.5522847.4477153-1 1-1s1 .4477153 1 1h5c0-.5522847.4477153-1 1-1s1 .4477153 1 1h5c0-.5522847.4477153-1 1-1s1 .4477153 1 1h5c0-.5522847.4477153-1 1-1s1 .4477153 1 1z" fill="#2c3e50"/><path id="Shape" d="m7 7c1.1045695 0 2 .8954305 2 2v4h-4v-4c0-1.1045695.8954305-2 2-2z" fill="#2c3e50"/><path id="Shape" d="m29 38.6v10.4c-.0032948 1.1032019-.8967981 1.9967052-2 2h-21c-1.10320187-.0032948-1.9967052-.8967981-2-2v-3.31c5.62-4.62 14.32-9.33 25-7.09z" fill="#2fa8cc"/><path id="Shape" d="m25.383 35.076c-.3737776-.1548179-.8040145-.0691653-1.09.217l-3.293 3.293-3.293-3.293c-.2859943-.2859079-.7160366-.3714219-1.0896546-.216678-.3736179.1547439-.6172591.5192821-.6173454.923678v10c0 .5522847.4477153 1 1 1s1-.4477153 1-1v-7.586l2.293 2.293c.3904999.3903819 1.0235001.3903819 1.414 0l2.293-2.293v7.586c0 .5522847.4477153 1 1 1s1-.4477153 1-1v-10c.0001018-.4044291-.2434093-.7691037-.617-.924z" fill="#547580"/><path id="Shape" d="m13 40h-4v-3h4c.5522847 0 1-.4477153 1-1s-.4477153-1-1-1h-5c-.55228475 0-1 .4477153-1 1v10c0 .5522847.44771525 1 1 1s1-.4477153 1-1v-4h4c.5522847 0 1-.4477153 1-1s-.4477153-1-1-1z" fill="#547580"/></g></g></svg>