<?xml version="1.0" encoding="iso-8859-1"?>
<!-- Generator: Adobe Illustrator 19.0.0, SVG Export Plug-In . SVG Version: 6.00 Build 0)  -->
<svg version="1.1" id="Capa_1" xmlns="http://www.w3.org/2000/svg" xmlns:xlink="http://www.w3.org/1999/xlink" x="0px" y="0px"
	 viewBox="0 0 512 512" style="enable-background:new 0 0 512 512;" xml:space="preserve">
<g>
	<path style="fill:#F0A479;" d="M391.797,219.46l-16.699,76.673c-2.964,14.848-13.401,20.488-28.245,17.528
		c-14.847-2.962-24.484-17.398-21.524-32.247c-6.981,35.018-57.07,24.893-50.767-6.723c21.745-109.018,20.032-103.516,23.409-109.18
		l-0.088-0.29c-0.164-24.112-2.801-1.261,16.978-126.469c2.33-14.739-7.733-28.576-22.472-30.907
		c-14.738-2.327-28.575,7.737-30.903,22.474l-15.893,100.601l-1.209,7.667l-2.877,18.203l-0.018,0.113
		c-0.236,1.482-3.199,18.793-12.216,18.793c-9.415,0-12.572-21.085-12.572-21.085l-2.531-16.024l-1.211-7.667l-15.892-100.6
		C194.737,15.582,180.9,5.518,166.161,7.845c-14.74,2.331-24.802,16.168-22.472,30.907
		c23.768,150.478,18.571,116.551,26.535,172.796c-3.286-0.157-6.399-0.267-9.257-0.343c0,0-16.597-1.264-23.085,16.942l-2.297,6.444
		l-22.194,62.286c-3.023,8.481,1.363,16.681,1.363,16.681l13.255,30.328c0.094,0.198,7.714,16.354,19.603,28.125l-0.002,0.003
		c0.137,0.137,17.218,17.046,17.218,17.046c13.066,12.945,10.608,44.86,10.634,74.09l177.651-0.135
		c-0.028-35.526-0.021-33.031-0.03-45.639c-0.015-16.934,9.817-28.371,9.891-28.458l17.276-18.803
		c4.249-5.272,11.599-17.245,11.586-37.101L391.797,219.46z"/>
	<path style="fill:#F0A479;" d="M377.617,163.383c-14.846-2.962-29.281,6.677-32.242,21.522l-20.048,100.506
		c-2.96,14.848,6.677,29.286,21.524,32.247c14.844,2.96,29.28-6.678,32.244-21.526l20.045-100.507
		C402.1,180.78,392.465,166.343,377.617,163.383z"/>
	<path style="fill:#F0A479;" d="M323.852,152.661c-14.848-2.962-29.283,6.673-32.243,21.522l-20.048,100.508
		c-2.96,14.847,6.678,29.284,21.522,32.245c14.847,2.961,29.284-6.675,32.243-21.523l20.048-100.506
		C348.336,170.06,338.7,155.623,323.852,152.661z"/>
</g>
<g>
	<path style="fill:#EA976E;" d="M261.589,156.79l2.877-18.203c1.885-11.954,15.268-96.658,17.102-108.267
		c1.539-9.743,8.109-17.439,16.643-20.868c-16.205-6.475-34.038,3.839-36.727,20.868l-15.893,100.601l-1.209,7.667l-2.877,18.203
		l-0.018,0.113c-0.101,0.633-0.701,4.144-2.05,7.963C246.274,183.598,258.554,176.332,261.589,156.79z"/>
	<path style="fill:#EA976E;" d="M195.549,463.137c-0.024-29.225,2.43-61.131-10.634-74.074c0,0-17.081-16.909-17.218-17.046
		l0.002-0.003c-15.94-15.78-22.212-34.093-32.859-58.453c0,0-4.385-8.199-1.363-16.681c3.319-9.313,21.038-59.041,24.491-68.731
		c6.488-18.207,23.085-16.942,23.085-16.942c2.858,0.076,5.971,0.186,9.257,0.343c-7.847-55.418-2.463-20.39-26.535-172.796
		c-2.007-12.7,5.189-24.723,16.648-29.3c-19.349-7.773-40.012,8.552-36.732,29.3c23.768,150.478,18.571,116.551,26.535,172.796
		c-3.286-0.157-6.399-0.267-9.257-0.343c0,0-16.597-1.264-23.085,16.942l-2.297,6.444l-22.194,62.286
		c-3.023,8.481,1.363,16.681,1.363,16.681l13.255,30.328c0.094,0.198,7.714,16.354,19.603,28.125l-0.002,0.003
		c0.137,0.137,17.218,17.046,17.218,17.046c13.066,12.945,10.608,44.86,10.634,74.09L195.549,463.137z"/>
	<path style="fill:#EA976E;" d="M345.413,285.412l20.048-100.506c1.891-9.484,8.468-16.835,16.839-20.141
		c-1.493-0.586-3.055-1.057-4.683-1.381c-14.846-2.962-29.281,6.677-32.242,21.522l-20.048,100.506
		c-2.96,14.848,6.677,29.286,21.524,32.247c5.362,1.069,10.666,0.487,15.4-1.382C350.132,311.518,342.777,298.632,345.413,285.412z"
		/>
	<path style="fill:#EA976E;" d="M291.646,274.691l20.048-100.508c1.891-9.486,8.467-16.836,16.839-20.142
		c-1.492-0.586-3.053-1.057-4.681-1.38c-14.848-2.962-29.283,6.673-32.243,21.522l-20.048,100.508
		c-4.243,21.284,16.83,38.798,36.925,30.863C296.367,300.796,289.011,287.91,291.646,274.691z"/>
</g>
<path style="fill:#E8E8E8;" d="M377.617,491.113c0,7.403-6.003,13.404-13.406,13.404H159.789c-7.403,0-13.406-6.001-13.406-13.404
	v-18.989c0-7.403,6.003-13.406,13.406-13.406h204.422c7.403,0,13.406,6.003,13.406,13.406V491.113z"/>
<path style="fill:#D1D3D3;" d="M364.211,484.616H159.788c-7.249,0-13.14-5.758-13.382-12.948c-0.032,1-0.023-3.184-0.023,19.445
	c0,7.403,6.002,13.404,13.405,13.404h204.423c7.403,0,13.405-6.001,13.405-13.404c0-22.627,0.009-18.446-0.023-19.445
	C377.351,478.857,371.46,484.616,364.211,484.616z"/>
<path d="M379.084,156.016c-2.261-0.451-4.567-0.68-6.856-0.68c-8.532,0-16.48,3.138-22.632,8.396
	c-8.399-16.495-27.789-23.289-44.281-16.527l6.519-41.274c0.646-4.089-2.146-7.928-6.235-8.575
	c-4.097-0.647-7.928,2.146-8.574,6.235l-9.434,59.72c-3.644,6.923-1.725,1.319-23.383,109.899
	c-6.564,32.93,32.191,54.381,56.906,33.38c13.888,26.95,51.902,24.335,63.214-2.146c0.012,28.708,1.982,45.976-9.771,60.775
	l-17.102,18.614c-0.064,0.07-0.131,0.145-0.192,0.218c-1.196,1.406-11.691,14.29-11.675,33.317l0.025,33.838H182.985
	c0.488-60.52-2.74-57.413-29.931-84.366c-19.902-20.593-23.72-42.058-31.688-56.829c-0.028-0.053-2.738-5.504-0.913-10.629
	c0.002-0.006,24.488-68.725,24.491-68.731c4.335-12.163,14.415-12.037,15.454-11.984c1,0.102,64.285,1.242,71.515,14.849
	c9.856,18.562,1.691,40.552-46.733,43.716c-4.131,0.271-7.262,3.838-6.992,7.97c0.27,4.117,3.82,7.26,7.97,6.992
	c59.292-3.875,74.202-37.078,58.997-65.712c-9.243-17.397-48.429-20.826-68.451-22.094c-7.751-55.524-1.069-11.447-25.608-166.821
	c-1.681-10.632,5.603-20.651,16.237-22.332c10.632-1.681,20.651,5.606,22.33,16.24l19.625,124.232
	c5.564,37.142,34.293,35.702,39.609,2.331l19.994-126.563c1.68-10.634,11.706-17.911,22.327-16.24
	c10.635,1.682,17.92,11.701,16.239,22.333l-4.904,31.042c-0.646,4.089,2.146,7.928,6.235,8.575c4.094,0.643,7.928-2.146,8.574-6.235
	l4.904-31.041c2.972-18.798-9.906-36.509-28.708-39.482c-18.797-2.972-36.508,9.91-39.477,28.709
	c-20.363,128.898-20.282,134.81-24.698,138.833c-4.695-4.566-5.056-13.139-24.911-138.833c-2.971-18.799-20.677-31.675-39.48-28.709
	c-18.801,2.974-31.677,20.685-28.706,39.481c23.45,148.473,18.521,116.061,25.185,163.798c-14.511-0.309-26.069,9.012-30.147,20.509
	l-24.991,70.134c-3.768,10.574,0.586,20.297,1.648,22.413c10.479,23.977,15.98,41.769,34.332,60.542
	c25.17,24.987,26.11,18.945,25.68,73.903h-8.202c-11.526,0-20.903,9.377-20.903,20.903v18.989c0,11.525,9.377,20.901,20.903,20.901
	h84.719c4.141,0,7.497-3.355,7.497-7.497s-3.355-7.497-7.497-7.497H159.79c-3.259,0-5.909-2.65-5.909-5.907v-18.989
	c0-3.259,2.651-5.909,5.909-5.909h204.422c3.259,0,5.909,2.651,5.909,5.909v18.989c0,3.258-2.651,5.907-5.909,5.907h-84.719
	c-4.141,0-7.497,3.355-7.497,7.497s3.355,7.497,7.497,7.497h84.719c11.526,0,20.903-9.376,20.903-20.901v-18.989
	c0-11.526-9.377-20.903-20.903-20.903h-3.602l-0.026-33.85c-0.012-13.123,7.225-22.501,8.05-23.527l17.139-18.654
	c6.815-7.427,13.576-23.162,13.562-42.176l-0.041-99.825l7.199-36.095C410.265,178.158,398.006,159.788,379.084,156.016z
	 M310.306,296.008c-14.521,10.761-34.971-1.918-31.392-19.865c22.219-111.393,19.892-102.104,22.591-106.996
	c4.285-6.993,12.509-10.817,20.883-9.149c10.77,2.148,17.785,12.658,15.638,23.427C316.493,291.367,319.033,289.513,310.306,296.008
	z M391.788,194.145c-21.264,106.624-20.081,101.505-21.13,104.094c-1.678,4.121-4.788,7.809-9.247,10.163
	c-14.572,7.621-32.029-4.998-28.731-21.539l20.048-100.506c1.852-9.286,10.052-16.027,19.499-16.027
	c6.484,0,12.762,3.125,16.595,8.864C391.775,183.619,392.828,188.929,391.788,194.145z"/>
<g>
</g>
<g>
</g>
<g>
</g>
<g>
</g>
<g>
</g>
<g>
</g>
<g>
</g>
<g>
</g>
<g>
</g>
<g>
</g>
<g>
</g>
<g>
</g>
<g>
</g>
<g>
</g>
<g>
</g>
</svg>
