<?xml version="1.0" encoding="iso-8859-1"?>
<!-- Generator: Adobe Illustrator 19.0.0, SVG Export Plug-In . SVG Version: 6.00 Build 0)  -->
<svg version="1.1" id="Capa_1" xmlns="http://www.w3.org/2000/svg" xmlns:xlink="http://www.w3.org/1999/xlink" x="0px" y="0px"
	 viewBox="0 0 512 512" style="enable-background:new 0 0 512 512;" xml:space="preserve">
<path style="fill:#137BD8;" d="M501.95,56.186c-0.979-3.737-4.754-5.984-8.501-5.041c-10.236,2.578-30.232,9.949-42.543,29.735
	c-0.845,1.508-1.595,3.02-2.286,4.531c-0.691-1.511-1.441-3.023-2.286-4.531c-12.311-19.785-32.307-27.157-42.543-29.735
	c-3.746-0.943-7.522,1.304-8.501,5.041c-2.677,10.218-5.849,31.276,5.54,51.589c6.043,9.712,13.936,16.426,21.618,21.055
	c2.453,1.478,3.731,4.357,3.197,7.171c-15.148,79.706-117.499,82.293-117.499,82.293H67.545c-41.526,0-70.575,41.262-56.358,80.278
	c32.792,89.99,119.137,154.237,220.482,154.186c128.895-0.065,234.343-107.813,234.343-236.708v-78.26
	c0-2.626,1.461-5.041,3.808-6.219c9.125-4.581,19.229-11.967,26.59-23.796C507.799,87.462,504.627,66.404,501.95,56.186z"/>
<path style="fill:#086CB7;" d="M496.412,107.774c-7.366,11.833-17.47,19.219-26.594,23.796c-2.338,1.179-3.808,3.598-3.808,6.216
	v78.264c0,128.894-105.448,236.64-234.342,236.71c-77.594,0.04-146.404-37.628-189.109-95.674
	c42.805,45.733,103.729,74.296,171.319,74.266c128.904-0.06,234.352-107.806,234.352-236.71c0-13.131,0.358-26.323,0.137-39.439
	c-0.205-12.145-3.733-25.806,1.741-37.298c6.082-12.769,20.961-19.387,28.515-31.529c6.466-11.533,8.235-23.306,8.065-33.19
	c2.529-0.889,4.827-1.549,6.766-2.039c3.738-0.949,7.515,1.299,8.495,5.037C504.627,66.399,507.795,87.466,496.412,107.774z"/>
<path style="fill:#E8E8EA;" d="M316.739,436.801c-26.396,10.304-55.127,15.952-85.186,15.952
	c-101.054,0-187.177-63.921-220.13-153.553H118.01c39.588,0,77.544,15.78,105.464,43.846L316.739,436.801z"/>
<path style="fill:#D6D6D8;" d="M296.1,416.057c-25.615,9.864-53.329,15.291-82.221,15.301
	c-67.55,0.03-128.434-28.493-171.229-74.176l-0.09-0.09c0.969,1.319,1.949,2.628,2.958,3.918c0.889,1.159,1.789,2.319,2.712,3.463
	c16.232,20.115,33.713,36.236,55.464,50.386c14.58,9.486,29.427,16.972,45.788,23.126c7.993,3.007,16.613,5.712,24.86,7.745
	c13.857,3.417,28.327,5.775,42.525,6.576c7.75,0.437,15.366,0.549,23.106,0.3c0.62-0.02,1.229-0.04,1.849-0.07
	s1.239-0.06,1.859-0.09c25.505-1.339,49.961-6.896,72.727-15.971L296.1,416.057z"/>
<path style="fill:#137BD8;" d="M241.226,359.795c0,0,4.334,54.874,50.486,85.638c37.881,22.828,78.29,15.068,93.11,10.986
	c3.477-0.958,5.65-4.384,5.034-7.938c-2.627-15.146-12.839-55.006-49.64-79.536C292.709,340.316,241.226,359.795,241.226,359.795z"
	/>
<path style="fill:#086CB7;" d="M384.817,456.418c-14.811,4.078-55.227,11.843-93.105-10.983
	c-46.153-30.762-50.49-85.639-50.49-85.639s4.237-1.609,11.413-3.218c5.487,18.789,18.059,46.752,46.383,65.641
	c33.88,20.408,69.769,16.36,87.578,12.363c1.639,5.617,2.649,10.414,3.258,13.902C390.474,452.031,388.295,455.459,384.817,456.418z
	"/>
<circle cx="154.05" cy="262.221" r="10.883"/>
<path d="M509.201,54.286c-2.01-7.676-9.899-12.346-17.581-10.41c-10.629,2.676-29.439,9.668-43,27.18
	c-13.56-17.512-32.37-24.504-42.999-27.18c-7.68-1.933-15.571,2.735-17.581,10.41c-3.069,11.709-6.335,34.705,6.253,57.155
	c0.056,0.1,0.114,0.198,0.174,0.294c5.864,9.423,13.846,17.257,23.733,23.292c-5.85,30.004-25.803,51.829-59.312,64.873
	c-25.278,9.84-49.351,10.845-50.858,10.898h-77.501c-4.14,0-7.495,3.356-7.495,7.496s3.355,7.496,7.495,7.496h77.617
	c0.063,0,0.126-0.001,0.189-0.002c1.098-0.028,27.211-0.805,55.577-11.756c38.498-14.862,62.391-41.358,69.096-76.623
	c1.119-5.882-1.571-11.906-6.69-14.99c-7.962-4.799-14.365-11.01-19.032-18.458c-9.761-17.536-7.313-35.804-4.86-45.427
	c9.621,2.494,26.8,9.158,37.455,26.162c0.645,1.16,1.276,2.418,1.926,3.836c1.221,2.666,3.883,4.375,6.815,4.375
	c0,0,0.001,0,0.002,0c2.933-0.001,5.595-1.712,6.815-4.379c0.646-1.414,1.277-2.669,1.923-3.833
	c10.655-17.004,27.833-23.669,37.454-26.163c2.452,9.625,4.899,27.894-4.859,45.428c-5.534,8.83-13.439,15.868-23.501,20.92
	c-4.897,2.459-7.939,7.409-7.939,12.917v78.253c0,60.494-23.679,117.814-66.676,161.401c-5.382,5.456-10.988,10.592-16.781,15.427
	c-7.546-10.808-17.512-21.39-30.687-30.172c-0.095-0.063-0.191-0.124-0.289-0.183c-42.955-25.887-88.245-15.137-101.638-11.034
	l-13.657-13.729c-29.117-29.269-69.493-46.055-110.777-46.055H16.885c-4.078-14.954-1.394-30.588,7.653-43.513
	c9.965-14.238,25.64-22.403,43.007-22.403h117.011c4.14,0,7.495-3.356,7.495-7.496s-3.355-7.496-7.495-7.496H67.546
	c-21.999,0-42.667,10.766-55.289,28.798c-12.763,18.234-15.719,40.665-8.112,61.542c21.129,57.984,63.158,105.288,118.345,133.2
	c1.084,0.549,2.239,0.809,3.377,0.808c2.737,0,5.375-1.505,6.694-4.114c1.869-3.694,0.389-8.203-3.306-10.072
	c-48.339-24.448-85.911-64.756-106.816-114.264h95.572c37.324,0,73.827,15.176,100.149,41.637l16.083,16.167
	c1.78,12.287,9.479,49.086,39.849,76.66c-13.86,2.694-28.046,4.094-42.426,4.101h-0.119c-20.561,0-40.937-2.748-60.562-8.168
	c-3.99-1.103-8.118,1.24-9.22,5.23c-1.102,3.99,1.24,8.119,5.23,9.221c20.925,5.779,42.642,8.708,64.552,8.708h0.127
	c19.843-0.01,39.342-2.479,58.177-7.246c20.869,12.005,42.225,15.556,60.116,15.556c16.006,0,29.238-2.823,36.846-4.919
	c7.225-1.99,11.708-9.06,10.428-16.445c-1.532-8.835-5.315-24.633-14.269-41.404c6.767-5.545,13.293-11.483,19.541-17.816
	c22.22-22.526,39.688-48.656,51.917-77.664c12.66-30.031,19.078-61.747,19.078-94.266V138.11
	c12.464-6.326,22.31-15.199,29.267-26.378c0.059-0.097,0.118-0.195,0.174-0.295C515.534,88.993,512.269,65.996,509.201,54.286z
	 M295.726,439.1c-33.78-22.6-43.572-59.729-46.169-74.038c14.018-3.78,51.654-10.79,86.642,10.214
	c33.708,22.553,43.506,58.936,46.192,74.036C367.586,453.321,330.499,459.973,295.726,439.1z"/>
<path d="M68.946,141.696c4.14,0,7.496-3.356,7.496-7.496v-16.663c0-11.961,9.732-21.692,21.692-21.692
	c11.175,0,20.401,8.495,21.566,19.366c-0.048,0.77-0.081,63.368-0.081,63.368c0,4.14,3.355,7.496,7.495,7.496
	c0.035,0,0.069-0.005,0.104-0.005c0.035,0,0.069,0.005,0.104,0.005c4.14,0,7.496-3.356,7.496-7.496c0,0-0.033-62.598-0.082-63.368
	c1.165-10.871,10.391-19.366,21.566-19.366c11.961,0,21.692,9.731,21.692,21.692V134.2c0,4.14,3.355,7.496,7.496,7.496
	s7.495-3.356,7.495-7.496v-16.663c0-20.227-16.456-36.683-36.683-36.683c-11.835,0-22.372,5.639-29.084,14.365
	c-6.712-8.726-17.249-14.365-29.084-14.365c-20.227,0-36.683,16.456-36.683,36.683V134.2
	C61.45,138.34,64.806,141.696,68.946,141.696z"/>
<g>
</g>
<g>
</g>
<g>
</g>
<g>
</g>
<g>
</g>
<g>
</g>
<g>
</g>
<g>
</g>
<g>
</g>
<g>
</g>
<g>
</g>
<g>
</g>
<g>
</g>
<g>
</g>
<g>
</g>
</svg>
