<?xml version="1.0" encoding="utf-8"?>
<!-- Generator: Adobe Illustrator 22.0.1, SVG Export Plug-In . SVG Version: 6.00 Build 0)  -->
<svg version="1.1" id="Layer_1" xmlns="http://www.w3.org/2000/svg" xmlns:xlink="http://www.w3.org/1999/xlink" x="0px" y="0px"
	 viewBox="0 0 75.1 40.4" style="enable-background:new 0 0 75.1 40.4;" xml:space="preserve">
<style type="text/css">
	.st0{fill:#FFFFFF;}
</style>
<g>
	<g>
		<path class="st0" d="M22.6,39.9L9.1,19.8l-4.4,5.1v15.1H0.5V0.5h4.2V20h0.9l0.1-0.2c0.9-1.3,1.9-2.7,3.2-4.3l12.2-15h5.2
			L12.2,17.1l15.5,22.8H22.6z"/>
		<path d="M25.3,1L12,16.5l-0.5,0.6l0.4,0.6l14.7,21.7h-3.8L9.9,20l-0.7-1.1l-0.9,1l-3.8,4.4l-0.2,0.3V25v14.4H1V1h3.2v18.5v1h1h0.2
			h0.5l0.3-0.4c0.9-1.3,1.9-2.7,3.1-4.3L21.4,1H25.3 M27.4,0h-6.5L8.6,15.2c-1,1.3-2.1,2.8-3.2,4.3H5.2V0H0v40.4h5.2V25l3.8-4.4
			l13.3,19.9h6.2L12.8,17.2L27.4,0L27.4,0z"/>
	</g>
	<g>
		<path class="st0" d="M58.7,39.9l-4.3-12.7H39.3l-4.2,12.7h-4.3L44.2,0.5h5.6l13.5,39.4H58.7z M46.3,4.5c-0.7,2.9-1.4,5.2-2,7.3
			L40,24.1h13.6l-4.2-12.3c-0.8-2.5-1.4-4.7-2-6.9l-0.2-0.8h-0.9L46.3,4.5z"/>
		<path d="M49.4,1l13.1,38.4H59l-4.1-12l-0.2-0.7H54H39.7h-0.7l-0.2,0.7l-4,12h-3.3L44.5,1H49.4 M39.3,24.6h1.4h12.2h1.4l-0.4-1.3
			l-4-11.6c-0.8-2.4-1.4-4.7-2-6.9l-0.1-0.4l-0.2-0.8h-0.8h-0.1H46l-0.2,0.8c-0.7,2.8-1.4,5.1-2,7.2l-4,11.7L39.3,24.6 M50.1,0h-6.3
			L30.1,40.4h5.4l4.2-12.7H54l4.3,12.7h5.6L50.1,0L50.1,0z M40.7,23.6l4-11.7c0.8-2.5,1.4-4.9,2-7.3h0.1C47.5,7,48.1,9.4,49,12
			l4,11.6H40.7L40.7,23.6z"/>
	</g>
	<g>
		<rect x="70.3" y="0.5" class="st0" width="4.2" height="39.4"/>
		<path d="M74.1,1v38.4h-3.2V1H74.1 M75.1,0h-5.2v40.4h5.2V0L75.1,0z"/>
	</g>
</g>
</svg>
